<svg width="138" height="140" viewBox="0 0 138 140" fill="none" xmlns="http://www.w3.org/2000/svg">
<g filter="url(#filter0_dd_244_17245)">
<path d="M17.0577 18.0589L17.0493 129.982L128.972 129.99L128.981 18.0673L17.0577 18.0589ZM26.7897 26.2893C26.7916 26.9438 26.2614 27.4741 25.6066 27.4722L21.7705 27.4705C21.1157 27.4686 20.5857 26.9422 20.5876 26.2874L20.5893 22.4513C20.5874 21.7968 21.1176 21.2665 21.7724 21.2684L25.6085 21.2701C26.2631 21.2682 26.7933 21.7984 26.7914 22.4532L26.7897 26.2893ZM37.7504 26.2898C37.7523 26.9443 37.2221 27.4746 36.5673 27.4727L32.7312 27.471C32.0766 27.4729 31.5464 26.9427 31.5483 26.2879L31.55 22.4518C31.5481 21.7973 32.0783 21.267 32.733 21.2689L36.5692 21.2706C37.2237 21.2687 37.754 21.7989 37.7521 22.4537L37.7504 26.2898ZM48.711 26.2903C48.713 26.9449 48.1828 27.4751 47.528 27.4732L43.6919 27.4715C43.0371 27.4696 42.5071 26.9432 42.509 26.2885L42.5107 22.4523C42.5126 21.7976 43.039 21.2675 43.6937 21.2694L47.5299 21.2712C48.1844 21.2692 48.7147 21.7994 48.7128 22.4542L48.711 26.2903ZM59.6717 26.2909C59.6736 26.9454 59.1435 27.4757 58.4887 27.4738L54.6525 27.4721C53.998 27.474 53.4677 26.9438 53.4696 26.289L53.4714 22.4529C53.4732 21.7981 53.9996 21.2681 54.6544 21.27L58.4906 21.2717C59.1451 21.2698 59.6753 21.7999 59.6734 22.4547L59.6717 26.2909ZM70.6324 26.2914C70.6343 26.9459 70.1041 27.4762 69.4494 27.4743L65.6132 27.4726C64.9587 27.4745 64.4284 26.9443 64.4303 26.2895L64.432 22.4534C64.4301 21.7988 64.9603 21.2686 65.6151 21.2705L69.4512 21.2722C70.106 21.2741 70.636 21.8005 70.6341 22.4552L70.6324 26.2914ZM81.5931 26.2919C81.595 26.9465 81.0648 27.4767 80.41 27.4748L76.5739 27.4731C75.9193 27.475 75.3891 26.9448 75.391 26.29L75.3927 22.4539C75.3908 21.7994 75.921 21.2691 76.5757 21.271L80.4119 21.2727C81.0664 21.2708 81.5967 21.801 81.5948 22.4558L81.5931 26.2919ZM92.5538 26.2924C92.5557 26.947 92.0255 27.4772 91.3707 27.4753L87.5346 27.4736C86.88 27.4755 86.3498 26.9453 86.3517 26.2906L86.3534 22.4544C86.3515 21.7999 86.8817 21.2696 87.5364 21.2715L91.3726 21.2732C92.0273 21.2751 92.5574 21.8015 92.5555 22.4563L92.5538 26.2924ZM103.514 26.2929C103.516 26.9475 102.986 27.4777 102.331 27.4759L98.4952 27.4741C97.8407 27.4761 97.3104 26.9458 97.3123 26.2911L97.3141 22.455C97.3122 21.8004 97.8423 21.2702 98.4971 21.272L102.333 21.2738C102.988 21.2718 103.518 21.8021 103.516 22.4568L103.514 26.2929ZM114.475 26.2935C114.477 26.948 113.947 27.4783 113.292 27.4764L109.456 27.4747C108.801 27.4766 108.271 26.9464 108.273 26.2916L108.275 22.4555C108.273 21.8009 108.803 21.2707 109.458 21.2726L113.294 21.2743C113.948 21.2724 114.479 21.8026 114.477 22.4573L114.475 26.2935ZM125.436 26.294C125.438 26.9485 124.908 27.4788 124.253 27.4769L120.417 27.4752C119.762 27.4771 119.232 26.9469 119.234 26.2921L119.235 22.456C119.233 21.8014 119.764 21.2712 120.418 21.2731L124.255 21.2748C124.909 21.2729 125.439 21.8031 125.438 22.4578L125.436 26.294Z" fill="#D1E9F6"/>
<path d="M23.4947 44.8832L24.5092 44.8821L25.3246 44.8818L26.3391 44.8808L27.5452 44.8832L28.5596 44.8822L29.3751 44.8819L30.3895 44.8808L31.4004 44.8838L32.6101 44.8822L33.4255 44.8819L34.509 44.8843L35.4508 44.8838L36.6605 44.8823L37.6711 44.8814L38.4906 44.8847L39.5012 44.8839L40.7109 44.8823L41.5263 44.882L42.541 44.8847L43.5517 44.8839L44.7613 44.8823L45.5768 44.882L46.7867 44.8843L47.6021 44.884L48.8118 44.8824L49.6274 44.8859L50.6419 44.8848L51.6525 44.884L52.8622 44.8824L53.6778 44.8859L54.6923 44.8849L55.902 44.8833L56.7174 44.883L57.7283 44.886L58.7427 44.8849L59.9524 44.8833L60.7678 44.883L61.7825 44.8858L62.7931 44.8849L62.9195 44.8849L62.9884 44.8845L64.0028 44.8834L64.8183 44.8831L66.0282 44.8853L66.8436 44.885L68.0533 44.8834L68.8689 44.8869L70.0786 44.8853L70.894 44.885L72.1037 44.8835L72.9193 44.887L73.9338 44.8859L74.9444 44.8851L76.1543 44.8873L76.9697 44.887L77.9842 44.8859L78.9949 44.8851L80.2048 44.8874L81.0202 44.887L82.0347 44.886L83.0453 44.8852L84.2552 44.8874L85.2658 44.8866L86.0851 44.886L87.2948 44.8845L88.1104 44.888L89.3201 44.8864L90.1355 44.8861L91.3454 44.8883L92.1608 44.888L93.1715 44.8872L94.3812 44.8856L95.3958 44.8884L96.2112 44.888L97.2257 44.887L98.2364 44.8862L99.4463 44.8884L100.262 44.8881L101.276 44.887L102.287 44.8862L103.497 44.8884L104.507 44.8876L105.327 44.8871L106.337 44.8862L107.547 44.8885L108.558 44.8877L109.377 44.8871L110.388 44.8863L111.598 44.8885L112.413 44.8882L113.427 44.8871L114.438 44.8863L115.648 44.8886L116.463 44.8882L117.478 44.8872L118.684 44.8897L119.503 44.8891L120.514 44.8883L121.528 44.8872L122.738 44.8895L123.749 44.8886L123.749 44.6398L122.539 44.6414L121.528 44.6384L120.709 44.639L119.698 44.6398L118.489 44.6413L117.673 44.6416L116.659 44.6389L115.453 44.6402L114.634 44.6408L113.623 44.6416L112.413 44.6394L111.402 44.6402L110.583 44.6408L109.572 44.6377L108.558 44.6388L107.352 44.6402L106.533 44.6407L105.522 44.6377L104.507 44.6388L103.302 44.6401L102.287 44.6374L101.471 44.6377L100.457 44.6387L99.2511 44.6401L98.4319 44.6406L98.3055 44.6407L98.2364 44.6373L97.421 44.6376L96.4065 44.6387L95.1968 44.6403L94.3812 44.6368L93.3705 44.6376L92.3561 44.6386L91.1464 44.6402L90.3307 44.6367L89.3163 44.6378L88.3056 44.6386L87.0958 44.6364L86.2803 44.6367L85.2659 44.6377L84.06 44.6391L83.0453 44.6363L82.2299 44.6366L81.0202 44.6382L80.0096 44.639L78.9949 44.6363L78.1795 44.6366L77.165 44.6376L75.9591 44.639L75.1397 44.6357L74.129 44.6365L73.1146 44.6376L71.9087 44.6389L71.0893 44.6357L69.8834 44.637L69.0642 44.6376L67.8581 44.6351L67.0388 44.6356L66.9163 44.6355L66.8436 44.6361L66.0282 44.6365L65.0137 44.6375L63.8076 44.635L62.9884 44.6356L61.9778 44.6364L60.9633 44.6375L59.7534 44.6352L58.938 44.6355L57.9273 44.6364L56.9129 44.6374L55.902 44.6344L54.8875 44.6355L53.8731 44.6366L52.667 44.6341L51.8516 44.6344L50.8371 44.6355L49.8227 44.6365L48.6166 44.634L47.7973 44.6346L46.7867 44.6354L45.7722 44.6365L44.5661 44.634L43.7469 44.6345L42.7363 44.6354L41.7218 44.6364L40.5157 44.634L39.6965 44.6345L38.4906 44.6359L37.6714 44.6364L36.6605 44.6334L35.4508 44.635L34.6354 44.6353L33.621 44.6364L32.6101 44.6334L31.5956 44.6344L30.585 44.6353L29.5705 44.6363L28.5596 44.6333L27.5452 44.6344L26.5346 44.6352L25.5199 44.6325L24.5092 44.6333L23.4948 44.6343L22.2851 44.6359L22.2848 44.8809L23.4947 44.8832Z" fill="#355C7D"/>
<path d="M23.2989 53.287L24.3097 53.29L25.3242 53.2889L26.5338 53.2874L27.3495 53.2909L28.364 53.2898L29.5698 53.2885L30.3891 53.2879L31.3999 53.2909L32.6096 53.2893L33.425 53.289L34.4395 53.288L35.4504 53.291L36.66 53.2894L37.4755 53.2891L38.4899 53.288L39.5008 53.291L40.7105 53.2894L41.5259 53.2891L42.5406 53.2919L43.6239 53.2904L44.7609 53.2895L45.5763 53.2892L46.591 53.2919L47.6016 53.2911L48.8113 53.2895L49.6267 53.2892L50.6414 53.292L51.8473 53.2906L52.8617 53.2896L53.6772 53.2892L54.6919 53.292L55.9015 53.2904L56.717 53.2901L57.9268 53.2924L58.7423 53.292L59.952 53.2905L60.9626 53.2896L61.7821 53.2929L62.7927 53.2921L64.0024 53.2905L64.8178 53.2902L65.8325 53.293L66.8431 53.2921L68.0528 53.2905L68.8682 53.2902L69.8829 53.293L70.8936 53.2922L72.1032 53.2906L72.9187 53.2903L73.9333 53.293L75.1392 53.2917L76.1536 53.2906L76.9693 53.2941L77.9838 53.2931L78.9944 53.2922L80.2041 53.2907L81.0198 53.2942L82.0342 53.2931L83.0448 53.2923L84.2547 53.2945L85.0702 53.2942L86.1535 53.2928L87.2905 53.2918L88.1097 53.2913L89.3158 53.2937L90.135 53.2932L91.3447 53.2916L92.1602 53.2913L93.171 53.2943L94.3807 53.2927L95.3951 53.2917L96.2108 53.2952L97.2253 53.2941L98.4311 53.2928L99.4456 53.2917L100.261 53.2952L101.276 53.2942L102.286 53.2933L103.496 53.2956L104.312 53.2953L105.326 53.2942L106.337 53.2934L107.547 53.2956L108.362 53.2953L109.377 53.2942L110.387 53.2934L111.597 53.2957L112.413 53.2953L113.622 53.2938L114.438 53.2935L114.564 53.2934L114.633 53.293L115.648 53.2957L116.463 53.2954L117.673 53.2938L118.684 53.2968L119.503 53.2963L120.513 53.2954L121.528 53.2944L122.738 53.2966L123.748 53.2958L123.748 53.0469L122.734 53.048L121.528 53.0455L120.709 53.0461L119.698 53.0469L118.684 53.0479L117.673 53.045L116.658 53.046L115.452 53.0474L114.633 53.0479L113.622 53.0449L112.608 53.046L111.402 53.0473L110.583 53.0479L109.572 53.0449L108.557 53.0459L107.351 53.0473L106.532 53.0478L105.521 53.0448L104.312 53.0464L103.496 53.0467L102.482 53.044L101.471 53.0448L100.456 53.0459L99.4458 53.0467L98.4311 53.0439L97.4205 53.0448L96.4061 53.0458L95.3954 53.0466L94.3807 53.0439L93.3701 53.0447L92.3556 53.0458L91.345 53.0466L90.1351 53.0444L89.3158 53.0449L88.3052 53.0457L87.2905 53.043L86.2799 53.0438L85.2654 53.0449L84.2548 53.0457L83.2401 53.0429L82.2294 53.0438L81.215 53.0448L80.2043 53.0456L79.1897 53.0429L78.179 53.0437L77.1646 53.0448L76.1539 53.0456L75.1392 53.0428L74.1286 53.0437L73.1141 53.0447L72.1035 53.0456L71.0888 53.0428L70.0782 53.0436L69.0637 53.0447L68.0528 53.0417L67.0384 53.0428L66.0277 53.0436L65.0133 53.0446L64.0024 53.0417L62.9879 53.0427L61.7821 53.0441L60.9629 53.0446L59.952 53.0416L58.7423 53.0432L57.9269 53.0435L56.9124 53.0446L55.9015 53.0416L54.8871 53.0426L53.8726 53.0437L52.862 53.0445L52.8618 53.0407L51.8473 53.0418L50.8367 53.0426L49.8222 53.0437L48.8113 53.0407L47.7969 53.0417L46.7862 53.0426L45.7718 53.0436L44.7609 53.0406L43.7465 53.0417L42.7358 53.0425L41.7214 53.0436L40.7105 53.0406L39.696 53.0416L38.6854 53.0425L37.6709 53.0435L36.66 53.0405L35.6456 53.0416L34.635 53.0424L33.4251 53.0402L32.6096 53.0405L31.5952 53.0416L30.3893 53.0429L29.5699 53.0396L28.5592 53.0405L27.5447 53.0415L26.5341 53.0423L25.5194 53.0396L24.5088 53.0404L23.4943 53.0415L22.2844 53.0392L22.2844 53.2881L23.2989 53.287Z" fill="#355C7D"/>
<path d="M23.2985 61.6941L24.3093 61.6971L25.3238 61.696L26.3383 61.695L27.3489 61.6941L28.3598 61.6971L29.3742 61.6961L30.3887 61.695L31.3993 61.6942L32.414 61.6969L33.4247 61.6961L34.4391 61.6951L35.6452 61.6975L36.4644 61.697L37.4751 61.6962L38.4895 61.6951L39.5004 61.6981L40.5149 61.697L41.5255 61.6962L42.54 61.6951L43.5508 61.6981L44.5653 61.6971L45.5759 61.6963L46.5904 61.6952L47.6013 61.6982L48.6157 61.6971L49.8216 61.6958L50.6408 61.6952L51.6517 61.6982L52.6662 61.6972L53.6768 61.6963L54.6915 61.6991L55.7021 61.6983L56.7166 61.6972L57.7272 61.6964L58.7419 61.6991L59.7526 61.6983L60.767 61.6973L61.7815 61.6962L62.7923 61.6992L63.803 61.6984L64.8174 61.6973L65.8319 61.6962L67.038 61.6987L67.8572 61.6981L68.8679 61.6973L69.8825 61.7001L70.8932 61.6992L71.9077 61.6982L72.9183 61.6974L73.933 61.7001L74.9436 61.6993L75.9581 61.6983L76.9687 61.6974L78.1786 61.6997L78.9941 61.6994L80.2037 61.6978L81.2146 61.7008L82.0338 61.7002L83.0445 61.6994L84.2541 61.6978L85.0696 61.6975L86.0843 61.7002L87.0949 61.6994L88.1093 61.6984L89.1202 61.7014L90.1347 61.7003L91.1453 61.6995L92.1598 61.6984L93.1706 61.7014L94.1851 61.7003L95.1957 61.6995L96.2102 61.6985L97.2249 61.7012L98.2356 61.7004L99.2462 61.6996L100.261 61.6985L101.275 61.7012L102.286 61.7004L103.496 61.6989L104.311 61.7024L105.326 61.7013L106.336 61.7005L107.546 61.6989L108.362 61.7024L109.571 61.7008L110.387 61.7005L111.597 61.7028L112.607 61.7019L113.427 61.7014L114.437 61.7006L115.647 61.7028L116.463 61.7025L117.477 61.7014L118.488 61.7006L119.502 61.6995L120.513 61.7025L121.527 61.7015L122.733 61.7001L123.748 61.7029L123.748 61.454L122.734 61.4551L121.723 61.4521L120.708 61.4532L119.698 61.454L118.683 61.4551L117.672 61.4521L116.658 61.4531L115.647 61.454L114.633 61.4512L113.427 61.4525L112.607 61.4531L111.597 61.4539L110.387 61.4517L109.571 61.452L108.557 61.453L107.546 61.4539L106.532 61.4511L105.521 61.4519L104.507 61.453L103.496 61.4538L102.481 61.4511L101.471 61.4519L100.456 61.453L99.4455 61.4538L98.4308 61.451L97.4201 61.4519L96.4057 61.4529L95.3948 61.4499L94.3804 61.451L93.3697 61.4518L92.3552 61.4529L91.3444 61.4499L90.3299 61.4509L89.3155 61.452L88.3048 61.4528L87.2901 61.4501L86.2795 61.4509L85.0698 61.4525L84.2544 61.4528L83.2397 61.45L82.0339 61.4514L81.2146 61.4519L80.2037 61.4489L79.1893 61.45L78.1786 61.4508L77.1642 61.4519L76.1533 61.4489L75.1389 61.4499L74.1282 61.4508L73.1138 61.4518L72.1029 61.4488L71.0884 61.4499L70.0778 61.4507L69.0633 61.4518L68.0525 61.4488L67.038 61.4499L66.0274 61.4507L65.0129 61.4518L63.803 61.4495L62.9876 61.4498L61.9769 61.4507L60.9622 61.4479L59.7526 61.4495L58.9372 61.4498L57.9265 61.4506L56.8429 61.4483L55.7021 61.4494L54.8867 61.4497L53.6768 61.4475L52.8614 61.4478L51.8469 61.4489L50.8363 61.4497L49.8218 61.4508L48.811 61.4478L47.7965 61.4488L46.7859 61.4497L45.7712 61.4469L44.7605 61.4477L43.7461 61.4488L42.7354 61.4496L41.7208 61.4469L40.5149 61.4482L39.5004 61.4493L38.685 61.4496L37.6703 61.4468L36.4645 61.4481L35.6452 61.4487L34.6346 61.4495L33.6199 61.4468L32.4141 61.4481L31.5948 61.4487L30.5842 61.4495L29.5695 61.4467L28.3598 61.4483L27.5444 61.4486L26.5335 61.4456L25.4502 61.4471L24.3094 61.4483L23.4939 61.4486L22.284 61.4463L22.284 61.6952L23.2985 61.6941Z" fill="#355C7D"/>
<path d="M23.2981 70.1014L24.508 70.1036L25.3234 70.1033L26.334 70.1025L27.5437 70.1009L28.5584 70.1036L29.3738 70.1033L30.5835 70.1018L31.3989 70.1014L32.6088 70.1037L33.4243 70.1034L34.4387 70.1023L35.4493 70.1015L36.6592 70.1037L37.4747 70.1034L38.4891 70.1023L39.4998 70.1015L40.5144 70.1043L41.5251 70.1035L42.5396 70.1024L43.5502 70.1016L44.5649 70.1043L45.5755 70.1035L46.59 70.1024L47.6009 70.1054L48.6153 70.1043L49.6259 70.1035L50.6404 70.1025L51.6513 70.1055L52.6657 70.1044L53.6764 70.1036L54.6908 70.1025L55.9007 70.1048L56.7162 70.1045L57.7268 70.1036L58.9367 70.1059L59.7521 70.1056L60.7666 70.1045L61.7772 70.1037L62.7919 70.1064L63.8026 70.1056L64.817 70.1045L65.8315 70.1035L66.8424 70.1065L67.8568 70.1054L68.8674 70.1046L69.8819 70.1035L70.8928 70.1065L71.9072 70.1054L73.1131 70.1041L73.9323 70.1035L74.9432 70.1065L75.9577 70.1055L76.9683 70.1047L77.9828 70.1036L78.9936 70.1066L80.0081 70.1055L81.0187 70.1047L82.0334 70.1074L83.0441 70.1066L84.0585 70.1056L85.0692 70.1047L86.0838 70.1075L87.0945 70.1067L88.1089 70.1056L89.1196 70.1048L90.1343 70.1075L91.1449 70.1067L92.1593 70.1057L93.17 70.1048L94.1847 70.1076L95.1953 70.1068L96.2098 70.1057L97.2207 70.1087L98.2351 70.1076L99.2457 70.1068L100.26 70.1057L101.47 70.108L102.286 70.1077L103.3 70.1066L104.506 70.1091L105.325 70.1085L106.336 70.1077L107.35 70.1067L108.361 70.1058L109.376 70.1086L110.386 70.1078L111.401 70.1067L112.411 70.1059L113.426 70.1086L114.437 70.1078L115.451 70.1067L116.462 70.1097L117.477 70.1086L118.487 70.1078L119.502 70.1068L120.513 70.1098L121.527 70.1087L122.538 70.1079L123.748 70.1101L123.748 69.8613L122.538 69.859L121.722 69.8594L120.708 69.8604L119.624 69.8619L118.487 69.859L117.672 69.8593L116.657 69.8604L115.647 69.8612L114.632 69.8584L113.621 69.8593L112.607 69.8603L111.401 69.8579L110.582 69.8584L109.571 69.8592L108.488 69.8607L107.35 69.8578L106.531 69.8584L105.325 69.8597L104.506 69.8602L103.3 69.8578L102.481 69.8583L101.47 69.8591L100.456 69.8602L99.2458 69.858L98.4304 69.8583L97.4197 69.8591L96.4053 69.8602L95.1954 69.8579L94.3799 69.8582L93.3655 69.8593L92.1594 69.8568L91.1449 69.8579L90.3295 69.8582L89.3151 69.8592L88.109 69.8568L87.0945 69.8578L86.2791 69.8581L85.2646 69.8592L84.0585 69.8567L83.2393 69.8573L82.2287 69.8581L81.2142 69.8592L80.0081 69.8567L79.1889 69.8572L78.1782 69.8581L77.0947 69.8557L75.9577 69.8566L75.1385 69.8572L73.9326 69.8585L73.1131 69.8553L71.9073 69.8566L71.088 69.8571L70.0774 69.858L68.8675 69.8557L67.8568 69.8565L67.0376 69.8571L66.0269 69.8579L65.0123 69.8552L63.8026 69.8567L62.792 69.8576L61.9765 69.8579L60.9618 69.8551L59.7522 69.8567L58.9367 69.857L57.9223 69.8581L56.9114 69.8551L55.7017 69.8567L54.8863 69.857L53.8716 69.8542L52.6658 69.8555L51.8465 69.8561L50.8359 69.8569L49.626 69.8547L48.6153 69.8555L47.7961 69.8561L46.7854 69.8569L45.5756 69.8547L44.5649 69.8555L43.7457 69.856L42.735 69.8569L41.7203 69.8541L40.5145 69.8554L39.6952 69.856L38.6844 69.853L37.6699 69.8541L36.4641 69.8554L35.6448 69.8559L34.6339 69.853L33.6195 69.854L32.4136 69.8553L31.5255 69.8563L30.3883 69.8534L29.5691 69.854L28.3594 69.8555L27.544 69.8559L26.3341 69.8536L25.5186 69.8539L24.309 69.8555L23.4935 69.8558L22.2836 69.8536L22.2836 70.1024L23.2981 70.1014Z" fill="#355C7D"/>
<path d="M23.2976 78.5084L24.5073 78.5069L25.323 78.5104L26.3336 78.5095L27.348 78.5085L28.5579 78.5107L29.3734 78.5104L30.3878 78.5094L31.3985 78.5085L32.6084 78.5108L33.4238 78.5105L34.4383 78.5094L35.4489 78.5086L36.6588 78.5108L37.4742 78.5105L38.4887 78.5094L39.4993 78.5086L40.7092 78.5109L41.7199 78.51L42.5391 78.5095L43.5498 78.5087L44.7597 78.5109L45.5751 78.5106L46.5895 78.5095L47.6002 78.5087L48.8101 78.511L49.6255 78.5106L50.8352 78.5091L51.6506 78.5087L52.8605 78.511L53.6759 78.5107L53.8023 78.5106L53.8712 78.5102L54.6904 78.5096L55.8965 78.5121L56.7157 78.5115L57.7264 78.5107L58.7408 78.5097L59.9507 78.5119L60.9614 78.5111L61.7768 78.5108L62.7913 78.5097L64.0011 78.512L65.0118 78.5111L65.831 78.5106L66.8417 78.5097L68.0516 78.512L68.867 78.5117L69.8814 78.5106L70.8921 78.5098L72.102 78.512L72.9174 78.5117L73.9319 78.5106L74.9428 78.5136L76.1524 78.5121L76.9679 78.5117L77.9823 78.5107L79.1884 78.5132L80.2029 78.5121L81.0183 78.5118L82.2282 78.5141L83.0436 78.5137L84.2533 78.5122L85.0687 78.5118L86.0832 78.5108L87.2893 78.5133L88.1085 78.5127L89.1192 78.5119L90.1339 78.5146L91.3435 78.5131L92.1589 78.5127L93.1696 78.5119L94.1843 78.5147L95.3939 78.5131L96.2094 78.5128L96.3357 78.5127L96.4045 78.5123L97.22 78.512L98.2347 78.5147L99.4444 78.5131L100.26 78.5128L101.274 78.5118L102.285 78.5148L103.495 78.5132L104.31 78.5129L105.325 78.5118L106.336 78.5148L107.35 78.5137L108.361 78.5129L109.375 78.5157L110.581 78.5143L111.4 78.5138L112.411 78.513L113.426 78.5157L114.436 78.5149L115.451 78.5138L116.461 78.513L117.476 78.5158L118.682 78.5144L119.501 78.5139L120.512 78.513L121.527 78.5158L122.732 78.5145L123.747 78.5134L123.747 78.2684L122.537 78.2661L121.722 78.2665L120.512 78.268L119.697 78.2683L118.487 78.2661L117.671 78.2664L116.462 78.268L115.451 78.265L114.436 78.266L113.621 78.2664L112.607 78.2674L111.4 78.2649L110.581 78.2655L109.571 78.2663L108.556 78.2674L107.35 78.2649L106.531 78.2655L105.52 78.2663L104.506 78.2673L103.296 78.2651L102.48 78.2654L101.47 78.2662L100.455 78.2635L100.329 78.2636L100.26 78.264L99.2454 78.265L98.4299 78.2654L97.2203 78.2669L96.4046 78.2634L95.1949 78.265L94.3795 78.2653L93.3651 78.2664L92.3542 78.2634L91.1445 78.265L90.3291 78.2653L89.3146 78.2663L88.3037 78.2634L87.0941 78.2649L86.2059 78.2659L85.2642 78.2663L84.0581 78.2638L83.0436 78.2649L82.2282 78.2652L81.2135 78.2624L80.0077 78.2638L79.1884 78.2643L77.9826 78.2657L77.1631 78.2624L75.9572 78.2637L75.138 78.2643L73.9319 78.2618L73.1127 78.2624L71.9068 78.2637L71.0876 78.2643L70.0769 78.2651L68.867 78.2628L67.8526 78.2639L67.0372 78.2642L66.0263 78.2612L65.0118 78.2623L63.8022 78.2638L62.9867 78.2641L61.9758 78.2612L60.9614 78.2622L59.7517 78.2638L58.7408 78.2608L58.7411 78.2646L57.9216 78.2614L56.911 78.2622L55.7013 78.2638L54.6904 78.2608L53.8712 78.2613L52.6653 78.2627L51.7772 78.2636L50.8355 78.264L49.8208 78.2613L48.6149 78.2626L47.7957 78.2632L46.7848 78.2602L45.7703 78.2612L44.5645 78.2626L43.7452 78.2631L42.7344 78.2601L41.7199 78.2612L40.514 78.2625L39.6948 78.2631L38.6839 78.2601L37.6695 78.2612L36.4636 78.2625L35.4489 78.2597L34.6335 78.26L33.619 78.2611L32.4094 78.2627L31.5937 78.2592L30.5831 78.26L29.5686 78.2611L28.3589 78.2626L27.5433 78.2591L26.3336 78.2607L25.5182 78.261L24.3083 78.2588L23.4929 78.2591L23.3665 78.2592L23.2977 78.2596L22.2832 78.2607L22.2832 78.5095L23.2976 78.5084Z" fill="#355C7D"/>
<path d="M23.2972 86.9155L24.5069 86.914L25.3223 86.9137L26.3332 86.9166L27.5428 86.9151L28.5573 86.914L29.3727 86.9137L30.3874 86.9165L31.5933 86.9151L32.6077 86.9141L33.4234 86.9176L34.4378 86.9165L35.4485 86.9157L36.6582 86.9141L37.4738 86.9176L38.4883 86.9165L39.4989 86.9157L40.7088 86.918L41.5242 86.9176L42.6076 86.9162L43.5494 86.9158L44.7592 86.918L45.6474 86.917L46.7843 86.9161L47.5998 86.9158L48.8097 86.918L49.6251 86.9177L50.8348 86.9162L51.6502 86.9158L52.8601 86.9181L53.6755 86.9178L54.69 86.9167L55.8961 86.9192L56.7153 86.9186L57.726 86.9178L58.7404 86.9168L59.9503 86.919L60.7657 86.9187L61.7764 86.9179L62.7908 86.9168L64.0007 86.919L64.8162 86.9187L65.8268 86.9179L66.8413 86.9168L68.0512 86.9191L68.8666 86.9188L70.0763 86.9172L70.8917 86.9169L72.1016 86.9191L72.917 86.9188L73.9315 86.9178L74.054 86.9179L74.1267 86.9172L74.9421 86.9169L76.152 86.9192L77.0402 86.9182L77.9819 86.9178L78.9925 86.917L80.2025 86.9192L81.0179 86.9189L82.0323 86.9178L83.0432 86.9208L84.2529 86.9192L85.0683 86.9189L86.0828 86.9179L87.2889 86.9203L88.177 86.9194L89.3139 86.9185L90.1332 86.9179L91.3393 86.9204L92.1585 86.9198L93.3644 86.9185L94.1836 86.918L95.3935 86.9202L96.2089 86.9199L97.2196 86.9191L98.234 86.918L99.444 86.9202L100.259 86.9199L101.274 86.9189L102.48 86.9213L103.494 86.9203L104.31 86.92L105.324 86.9189L105.447 86.919L105.519 86.9184L106.335 86.9219L107.545 86.9203L108.555 86.9195L109.375 86.919L110.386 86.9219L111.595 86.9204L112.606 86.9195L113.425 86.919L114.436 86.922L115.646 86.9204L116.461 86.9201L117.476 86.9229L118.682 86.9215L119.57 86.9206L120.512 86.9201L121.526 86.9229L122.732 86.9216L123.747 86.9205L123.747 86.6716L122.537 86.6732L121.721 86.6735L120.512 86.6713L119.696 86.6716L118.486 86.6732L117.671 86.6735L116.657 86.6746L115.45 86.6721L114.631 86.6726L113.621 86.6735L112.606 86.6745L111.4 86.672L110.581 86.6726L109.57 86.6734L108.555 86.6707L107.35 86.672L106.335 86.6731L105.52 86.6734L104.505 86.6706L103.295 86.6722L102.285 86.673L101.469 86.6733L100.455 86.6706L99.245 86.6721L98.4295 86.6725L97.4189 86.6733L96.4042 86.6705L95.1945 86.6721L94.3791 86.6724L93.3644 86.6697L92.1586 86.671L91.1441 86.6721L90.3287 86.6724L89.314 86.6696L88.3033 86.6704L87.0937 86.672L86.2783 86.6723L85.2636 86.6696L84.0577 86.6709L83.0432 86.672L82.2278 86.6723L81.2131 86.6695L80.0073 86.6709L79.188 86.6714L77.9819 86.6689L77.1627 86.6695L75.9568 86.6708L75.1376 86.6714L75.0151 86.6712L74.9424 86.6719L74.1267 86.6684L73.1123 86.6694L71.9064 86.6708L71.0872 86.6713L70.0763 86.6683L69.0618 86.6694L67.8522 86.671L67.0367 86.6713L66.0259 86.6683L65.0114 86.6694L63.8017 86.6709L62.9863 86.6713L61.9754 86.6683L60.961 86.6693L59.9503 86.6702L58.9357 86.6674L57.9212 86.6685L56.9105 86.6693L55.8961 86.6703L54.8852 86.6674L53.8708 86.6684L52.6649 86.6698L51.8457 86.6703L50.8348 86.6673L49.6251 86.6689L48.6145 86.6697L47.7952 86.6703L46.5892 86.6678L45.7699 86.6683L44.564 86.6697L43.7448 86.6702L42.7339 86.6672L41.7195 86.6683L40.5136 86.6696L39.6942 86.6664L38.6835 86.6672L37.6691 86.6682L36.6584 86.6691L35.6437 86.6663L34.6331 86.6671L33.6186 86.6682L32.608 86.669L31.5933 86.6663L30.5827 86.6671L29.5682 86.6682L28.5576 86.669L27.5429 86.6662L26.5322 86.6671L25.5178 86.6681L24.5069 86.6651L23.4924 86.6662L22.2828 86.6678L22.2827 86.9166L23.2972 86.9155Z" fill="#355C7D"/>
<path d="M23.492 95.3222L24.3075 95.3218L25.3219 95.3208L26.3328 95.3238L27.3473 95.3227L28.3579 95.3219L29.3724 95.3208L30.3832 95.3238L31.3977 95.3228L32.4083 95.3219L33.4228 95.3209L34.4375 95.3236L35.4481 95.3228L36.6578 95.3212L37.6687 95.3242L38.4879 95.3236L39.4985 95.3228L40.7082 95.3213L41.5239 95.3248L42.5383 95.3237L43.549 95.3229L44.7586 95.3213L45.5743 95.3248L46.5888 95.3238L47.5994 95.3229L48.8093 95.3252L49.6247 95.3249L50.6392 95.3238L51.7225 95.3223L52.8597 95.3252L53.6752 95.3249L54.6896 95.3238L55.8955 95.3225L56.7147 95.3219L57.7256 95.3249L58.74 95.3239L59.9497 95.3223L60.7654 95.3258L61.776 95.325L62.7905 95.3239L64.0001 95.3223L64.8158 95.3258L66.0255 95.3243L66.8409 95.324L68.0508 95.3262L69.0614 95.3254L69.8807 95.3248L70.8913 95.324L72.1012 95.3262L72.9166 95.3259L73.9311 95.3249L75.137 95.3235L76.1517 95.3263L76.9671 95.326L77.9815 95.3249L79.1874 95.3236L80.2021 95.3263L81.0175 95.326L82.0319 95.325L83.0426 95.3241L83.1689 95.324L83.238 95.3274L84.2525 95.3264L85.0679 95.3261L86.0824 95.325L87.2885 95.3275L88.1077 95.3269L89.1183 95.3261L90.1328 95.325L91.3389 95.3275L92.1581 95.327L93.1688 95.3261L94.2521 95.3247L95.3931 95.3273L96.2086 95.327L97.2919 95.3255L98.4289 95.3246L99.4436 95.3274L100.259 95.3271L101.27 95.3262L102.284 95.3252L103.494 95.3274L104.309 95.3271L105.324 95.326L106.335 95.3252L107.544 95.3275L108.36 95.3271L109.374 95.3261L110.385 95.3291L111.595 95.3275L112.41 95.3272L113.425 95.3261L114.436 95.3291L115.645 95.3275L116.461 95.3272L117.671 95.3295L117.67 95.3256L118.681 95.3286L119.5 95.3281L120.511 95.3273L121.721 95.3295L122.732 95.3287L123.746 95.3276L123.746 95.0788L122.732 95.0798L121.721 95.0807L120.706 95.0779L119.696 95.0787L118.681 95.0798L117.671 95.0806L116.656 95.0779L115.45 95.0792L114.631 95.0797L113.62 95.0806L112.606 95.0778L111.4 95.0791L110.58 95.0797L109.57 95.0805L108.555 95.0778L107.544 95.0786L106.53 95.0797L105.519 95.0805L104.505 95.0777L103.494 95.0786L102.48 95.0796L101.27 95.0774L100.454 95.0777L99.4436 95.0785L98.2339 95.0801L97.4145 95.0768L96.4038 95.0777L95.3932 95.0785L94.3787 95.0795L93.364 95.0768L92.3534 95.0776L91.3389 95.0787L90.3283 95.0795L89.3136 95.0767L88.303 95.0776L87.2885 95.0786L86.2776 95.0756L85.2632 95.0767L84.2525 95.0775L83.2381 95.0786L82.2272 95.0756L81.2127 95.0767L80.2021 95.0775L79.1877 95.0785L78.1768 95.0756L77.1623 95.0766L76.1517 95.0774L75.1372 95.0785L74.1264 95.0755L72.9167 95.0771L72.1012 95.0774L71.0868 95.0785L69.8807 95.076L69.0615 95.0765L68.0508 95.0774L67.0361 95.0746L66.0255 95.0754L65.011 95.0765L64.0004 95.0773L62.9857 95.0746L61.9713 95.0756L60.9606 95.0764L59.95 95.0773L58.9353 95.0745L57.9208 95.0756L56.9102 95.0764L55.8957 95.0775L54.8849 95.0745L53.8704 95.0755L52.8597 95.0764L51.8451 95.0736L50.8344 95.0744L49.82 95.0755L48.8093 95.0763L47.7946 95.0736L46.784 95.0744L45.7695 95.0754L44.7589 95.0763L43.7442 95.0735L42.7336 95.0744L41.5239 95.0759L40.7085 95.0762L39.6938 95.0735L38.4879 95.0748L37.6687 95.0754L36.658 95.0762L35.6434 95.0734L34.6327 95.0743L33.6183 95.0753L32.6074 95.0723L31.5929 95.0734L30.5823 95.0742L29.5678 95.0753L28.557 95.0723L27.3473 95.0738L26.5281 95.0744L25.5174 95.0752L24.5065 95.0723L23.4921 95.0733L22.2824 95.0749L22.2821 95.3199L23.492 95.3222Z" fill="#355C7D"/>
<path d="M23.2964 103.73L24.307 103.729L25.3215 103.728L26.3321 103.727L27.3468 103.73L28.3575 103.729L29.5671 103.728L30.3826 103.727L31.3973 103.73L32.4079 103.729L33.4223 103.728L34.437 103.731L35.4477 103.73L36.4621 103.729L37.4728 103.728L38.4875 103.731L39.4981 103.73L40.5126 103.729L41.5232 103.728L42.5379 103.731L43.7438 103.73L44.563 103.729L45.5736 103.728L46.7835 103.73L47.5989 103.73L48.6134 103.729L49.6241 103.728L50.6387 103.731L51.6494 103.73L52.6638 103.729L53.6747 103.732L54.6892 103.731L55.6998 103.73L56.7143 103.729L57.7251 103.732L58.7396 103.731L59.7502 103.73L60.9601 103.733L61.7756 103.732L62.79 103.731L63.8007 103.73L64.8151 103.729L65.826 103.732L66.8404 103.731L67.8511 103.73L68.8658 103.733L69.8802 103.732L70.8909 103.731L71.9053 103.73L72.9162 103.733L73.9307 103.732L75.1365 103.731L75.9558 103.73L76.9666 103.733L77.9811 103.732L78.9917 103.731L80.0062 103.73L81.017 103.733L82.0315 103.732L83.0422 103.731L84.2521 103.734L85.0675 103.733L86.082 103.732L87.0926 103.731L88.1073 103.734L89.3131 103.733L90.1324 103.732L91.143 103.731L92.3529 103.734L93.1683 103.733L94.1828 103.732L95.1934 103.731L96.2081 103.734L97.2188 103.733L98.2332 103.732L99.2439 103.732L100.259 103.734L101.269 103.733L102.284 103.732L103.494 103.735L104.309 103.734L105.323 103.733L106.334 103.732L107.544 103.735L108.359 103.734L109.374 103.733L110.385 103.732L111.594 103.735L112.41 103.734L113.424 103.733L114.435 103.733L115.645 103.735L116.46 103.734L117.67 103.733L118.485 103.733L119.5 103.735L120.706 103.734L121.525 103.733L122.536 103.736L123.746 103.735L123.746 103.486L122.731 103.487L121.525 103.485L120.706 103.485L119.695 103.486L118.681 103.487L117.67 103.488L116.655 103.485L115.645 103.486L114.63 103.487L113.62 103.484L112.605 103.485L111.594 103.486L110.58 103.487L109.569 103.484L108.555 103.485L107.544 103.486L106.53 103.487L105.519 103.484L104.504 103.485L103.494 103.486L102.479 103.487L101.468 103.484L100.454 103.485L99.4432 103.486L98.4287 103.487L97.414 103.484L96.4034 103.485L95.3889 103.486L94.378 103.483L93.1684 103.485L92.3529 103.485L91.3385 103.486L90.1324 103.483L89.3132 103.484L88.3025 103.485L87.2881 103.486L86.2772 103.483L85.2627 103.484L84.2521 103.485L83.2376 103.486L82.2268 103.483L81.2123 103.484L80.2017 103.485L78.9917 103.482L78.1763 103.483L77.1619 103.484L76.1512 103.485L75.1365 103.482L74.1259 103.483L73.1115 103.484L72.1008 103.485L71.0861 103.482L70.0755 103.483L69.061 103.484L68.0504 103.485L67.0357 103.482L66.0251 103.483L64.9417 103.484L63.8007 103.481L62.9853 103.482L61.7756 103.483L60.9602 103.484L59.7503 103.481L58.9348 103.482L57.9204 103.483L56.9097 103.484L55.6998 103.481L54.8844 103.482L53.87 103.483L52.8593 103.484L51.8446 103.481L50.834 103.482L49.8195 103.483L48.8089 103.484L47.599 103.481L46.7836 103.482L45.7691 103.483L44.563 103.48L43.7438 103.481L42.7331 103.482L41.7187 103.483L40.5126 103.48L39.6933 103.481L38.6827 103.482L37.6683 103.483L36.4583 103.48L35.6429 103.481L34.6323 103.481L33.5487 103.479L32.4079 103.48L31.5925 103.481L30.5819 103.481L29.5674 103.482L28.3575 103.48L27.5421 103.481L26.5276 103.482L25.3215 103.479L24.3071 103.48L23.4916 103.481L22.282 103.482L22.2817 103.727L23.2964 103.73Z" fill="#355C7D"/>
<path d="M23.2957 112.133L24.5018 112.136L25.3211 112.135L26.3317 112.134L27.3464 112.137L28.5561 112.135L29.3715 112.135L30.3821 112.134L31.3968 112.137L32.6065 112.136L33.4219 112.135L34.4364 112.134L35.4473 112.137L36.6569 112.136L37.4723 112.135L38.6823 112.137L39.4977 112.137L40.5121 112.136L41.5228 112.135L42.5372 112.134L43.5481 112.137L44.5626 112.136L45.5732 112.135L46.5879 112.138L47.5985 112.137L48.613 112.136L49.6236 112.135L50.6383 112.138L51.649 112.137L52.6634 112.136L53.6741 112.135L54.6888 112.138L55.8946 112.137L56.7138 112.136L57.7245 112.135L58.7392 112.138L59.7498 112.137L60.7643 112.136L61.7752 112.139L62.7896 112.138L63.8002 112.137L64.8147 112.136L65.8256 112.139L67.0352 112.138L67.8507 112.137L68.8651 112.136L70.075 112.139L70.8905 112.138L71.9011 112.138L72.9155 112.136L73.9302 112.139L74.9409 112.138L75.9553 112.137L76.966 112.136L77.9807 112.139L78.9913 112.138L80.0057 112.137L81.2118 112.14L82.0311 112.139L83.0417 112.138L84.0562 112.137L85.0671 112.14L86.0815 112.139L87.0922 112.138L88.1066 112.137L89.1175 112.14L90.132 112.139L91.1426 112.139L92.157 112.137L93.1679 112.141L94.1824 112.139L95.193 112.139L96.2077 112.141L97.2184 112.141L98.428 112.139L99.2434 112.139L100.258 112.141L101.269 112.141L102.283 112.14L103.294 112.139L104.309 112.141L105.323 112.14L106.334 112.14L107.344 112.139L108.359 112.141L109.373 112.14L110.384 112.14L111.399 112.139L112.605 112.141L113.424 112.14L114.435 112.14L115.449 112.142L116.46 112.142L117.474 112.14L118.485 112.14L119.5 112.142L120.51 112.142L121.525 112.141L122.535 112.14L123.745 112.142L123.745 111.893L122.536 111.895L121.72 111.891L120.706 111.892L119.695 111.893L118.485 111.895L117.67 111.891L116.46 111.893L115.644 111.893L114.63 111.894L113.424 111.892L112.605 111.892L111.399 111.893L110.58 111.894L109.569 111.891L108.554 111.892L107.345 111.894L106.529 111.89L105.518 111.891L104.504 111.892L103.294 111.894L102.283 111.891L101.468 111.891L100.453 111.892L99.2435 111.89L98.428 111.89L97.4136 111.891L96.4029 111.892L95.1931 111.89L94.3776 111.89L93.3632 111.891L92.1573 111.892L91.1426 111.89L90.3272 111.89L89.3128 111.891L88.1069 111.892L87.0922 111.89L86.2768 111.89L85.1934 111.891L84.0564 111.892L83.237 111.889L82.2264 111.89L81.2119 111.891L80.0058 111.889L79.1865 111.889L78.1759 111.89L77.1615 111.891L75.9554 111.888L75.1361 111.889L74.1255 111.89L72.9158 111.891L71.9011 111.889L70.8905 111.889L70.0751 111.89L68.8654 111.891L67.8507 111.889L67.0353 111.889L66.0208 111.89L65.0102 111.891L63.8003 111.889L62.9848 111.889L61.9704 111.89L60.9597 111.891L59.7499 111.889L58.9344 111.889L57.92 111.89L56.9093 111.891L56.783 111.891L56.7139 111.887L55.6994 111.889L54.884 111.889L53.6743 111.89L52.6635 111.887L51.8442 111.888L50.8336 111.889L49.6239 111.89L48.613 111.887L47.7938 111.888L46.7831 111.889L45.7687 111.89L44.5626 111.887L43.7434 111.888L42.66 111.889L41.7183 111.89L40.5122 111.887L39.4977 111.888L38.6823 111.889L37.6676 111.886L36.4579 111.887L35.6425 111.888L34.6318 111.889L33.6172 111.886L32.4075 111.887L31.5921 111.888L30.3822 111.885L30.3824 111.889L29.5667 111.886L28.3571 111.887L27.5417 111.888L26.5272 111.889L25.5163 111.886L24.3066 111.887L23.4912 111.888L22.2813 111.885L22.2813 112.134L23.2957 112.133Z" fill="#355C7D"/>
<path d="M122.73 120.546L123.745 120.549L123.745 120.3L122.535 120.298L121.72 120.298L120.51 120.3L119.694 120.3L118.485 120.298L117.669 120.298L116.459 120.3L115.449 120.301L114.629 120.297L113.619 120.298L112.604 120.299L111.398 120.301L110.579 120.297L109.568 120.298L108.554 120.299L108.428 120.299L108.359 120.3L107.344 120.297L106.529 120.297L105.518 120.298L104.503 120.299L103.294 120.297L102.478 120.297L101.268 120.299L100.453 120.299L99.2431 120.297L98.4277 120.297L97.218 120.299L96.4026 120.299L95.1926 120.297L94.3084 120.298L93.3628 120.298L92.3522 120.299L91.1422 120.297L90.3268 120.297L89.3123 120.298L88.3017 120.299L87.0918 120.297L86.2764 120.297L85.2619 120.298L84.0558 120.296L83.2366 120.296L82.0307 120.298L81.2115 120.298L80.0054 120.296L79.1862 120.296L77.9803 120.298L77.1611 120.298L75.955 120.296L75.1357 120.296L74.1251 120.297L73.1107 120.298L71.9007 120.296L71.0853 120.296L70.0747 120.297L69.0602 120.298L67.8503 120.296L67.0349 120.296L66.0204 120.297L65.8979 120.297L65.8252 120.298L65.0096 120.294L63.7999 120.296L62.9156 120.296L61.97 120.297L60.9591 120.294L59.7495 120.296L58.7388 120.296L57.9196 120.297L56.9087 120.294L55.699 120.296L54.8836 120.296L53.8692 120.297L52.6631 120.295L51.8438 120.295L50.8332 120.296L49.8187 120.297L48.6127 120.294L47.7934 120.295L46.7828 120.296L45.7681 120.293L44.5622 120.294L43.743 120.295L42.7323 120.296L41.7176 120.293L40.5118 120.294L39.4973 120.295L38.6819 120.296L37.472 120.294L36.4576 120.295L35.4469 120.295L34.6315 120.296L34.5051 120.296L34.4322 120.293L33.6168 120.293L32.4071 120.295L31.5917 120.295L30.577 120.292L29.5664 120.293L28.3567 120.294L27.5413 120.295L26.5266 120.292L25.5159 120.293L24.3063 120.294L23.4909 120.295L22.2809 120.293L22.2809 120.541L23.2954 120.54L24.5015 120.543L25.3207 120.542L26.5265 120.541L27.3458 120.54L28.5557 120.543L29.3711 120.542L30.3818 120.541L30.5081 120.541L30.577 120.541L31.3962 120.54L32.6061 120.543L33.4904 120.542L34.4322 120.541L35.4466 120.54L36.6566 120.543L37.472 120.542L38.4864 120.541L39.4973 120.544L40.707 120.543L41.7176 120.542L42.5369 120.541L43.5477 120.544L44.7574 120.543L45.768 120.542L46.5873 120.541L47.7934 120.544L48.8078 120.543L49.6233 120.543L50.6377 120.541L51.6486 120.544L52.8583 120.543L53.6737 120.543L54.6884 120.545L55.8942 120.544L56.7135 120.543L57.7241 120.543L58.934 120.545L59.9447 120.544L60.9591 120.543L61.7745 120.543L61.9009 120.543L61.97 120.546L62.7892 120.545L63.9989 120.544L65.0095 120.543L65.825 120.543L66.8396 120.545L68.0493 120.544L68.8648 120.544L69.8754 120.543L70.8901 120.545L72.0998 120.544L72.9152 120.544L73.9299 120.546L74.9405 120.545L76.1502 120.544L76.9656 120.544L77.9803 120.546L78.9909 120.546L80.2006 120.544L81.016 120.544L82.0307 120.546L83.0414 120.546L84.251 120.544L85.0664 120.544L86.0811 120.546L87.287 120.545L88.1062 120.545L89.1171 120.548L90.3268 120.546L91.3374 120.545L92.1567 120.545L93.3628 120.547L94.182 120.547L95.3879 120.545L96.2071 120.545L97.2179 120.548L98.2324 120.547L99.4421 120.545L100.258 120.545L101.268 120.548L102.283 120.547L103.493 120.545L104.308 120.545L104.434 120.545L104.503 120.548L105.319 120.548L106.333 120.547L107.543 120.545L108.359 120.549L109.373 120.548L110.384 120.547L111.398 120.546L112.409 120.549L113.424 120.548L114.434 120.547L115.449 120.546L116.459 120.549L117.474 120.548L118.68 120.546L119.499 120.546L120.51 120.549L121.72 120.547L122.73 120.546Z" fill="#355C7D"/>
<path opacity="0.8" d="M49.8457 11.979C49.0539 10.8064 48.0904 9.76685 47.2917 8.60614C47.0018 8.18751 46.5898 7.65005 46.3856 7.13045L6.50173 34.1203C7.37769 34.7938 8.15024 36.339 8.63266 37.0253C10.1511 39.1831 11.6697 41.3447 13.1037 43.5613L52.8809 16.6431C51.6419 15.2951 50.8856 13.5154 49.8495 11.9788L49.8457 11.979Z" fill="#EECAD5"/>
</g>
<defs>
<filter id="filter0_dd_244_17245" x="-1.39686" y="-4.39686" width="147.595" height="151.772" filterUnits="userSpaceOnUse" color-interpolation-filters="sRGB">
<feFlood flood-opacity="0" result="BackgroundImageFix"/>
<feColorMatrix in="SourceAlpha" type="matrix" values="0 0 0 0 0 0 0 0 0 0 0 0 0 0 0 0 0 0 127 0" result="hardAlpha"/>
<feMorphology radius="1.1125" operator="dilate" in="SourceAlpha" result="effect1_dropShadow_244_17245"/>
<feOffset dx="0.278124" dy="0.278124"/>
<feGaussianBlur stdDeviation="2.78124"/>
<feComposite in2="hardAlpha" operator="out"/>
<feColorMatrix type="matrix" values="0 0 0 0 0 0 0 0 0 0 0 0 0 0 0 0 0 0 0.04 0"/>
<feBlend mode="normal" in2="BackgroundImageFix" result="effect1_dropShadow_244_17245"/>
<feColorMatrix in="SourceAlpha" type="matrix" values="0 0 0 0 0 0 0 0 0 0 0 0 0 0 0 0 0 0 127 0" result="hardAlpha"/>
<feOffset dx="2.78124" dy="2.78124"/>
<feGaussianBlur stdDeviation="2.78124"/>
<feComposite in2="hardAlpha" operator="out"/>
<feColorMatrix type="matrix" values="0 0 0 0 0 0 0 0 0 0 0 0 0 0 0 0 0 0 0.04 0"/>
<feBlend mode="normal" in2="effect1_dropShadow_244_17245" result="effect2_dropShadow_244_17245"/>
<feBlend mode="normal" in="SourceGraphic" in2="effect2_dropShadow_244_17245" result="shape"/>
</filter>
</defs>
</svg>
