<svg width="140" height="141" viewBox="0 0 140 141" fill="none" xmlns="http://www.w3.org/2000/svg">
<g filter="url(#filter0_dd_244_17241)">
<path d="M124.469 14.7273L12.5462 14.7887L12.6077 126.711L124.53 126.65L124.469 14.7273ZM17.6963 22.6161C17.696 21.1396 18.8914 19.939 20.3717 19.9392C21.852 19.9393 23.0488 21.1343 23.0487 22.6146C23.0489 24.0911 21.8535 25.2917 20.3732 25.2915C18.8967 25.2918 17.6961 24.0964 17.6963 22.6161ZM17.7038 34.794C17.7035 33.3175 18.8989 32.1169 20.3792 32.117C21.8557 32.1168 23.0563 33.3122 23.0561 34.7925C23.0564 36.269 21.861 37.4696 20.3807 37.4694C18.9042 37.4697 17.7036 36.2743 17.7038 34.794ZM17.7112 46.9718C17.7109 45.4953 18.9064 44.2948 20.3867 44.2949C21.8632 44.2946 23.0637 45.4901 23.0636 46.9704C23.0639 48.4469 21.8685 49.6474 20.3882 49.6473C18.9116 49.6476 17.7111 48.4522 17.7112 46.9718ZM17.7187 59.1497C17.7184 57.6732 18.9138 56.4726 20.3941 56.4728C21.8706 56.4725 23.0712 57.6679 23.0711 59.1483C23.0713 60.6248 21.8759 61.8253 20.3956 61.8252C18.9191 61.8255 17.7185 60.63 17.7187 59.1497ZM17.7262 71.3276C17.7259 69.8511 18.9213 68.6505 20.4016 68.6507C21.8781 68.6504 23.0787 69.8458 23.0785 71.3261C23.0788 72.8026 21.8834 74.0032 20.4031 74.0031C18.9266 74.0033 17.726 72.8079 17.7262 71.3276ZM17.7336 83.5055C17.7333 82.029 18.9288 80.8284 20.4091 80.8286C21.8894 80.8287 23.0862 82.0237 23.086 83.504C23.0863 84.9805 21.8909 86.1811 20.4105 86.1809C18.934 86.1812 17.7335 84.9858 17.7336 83.5055ZM17.7411 95.6834C17.7408 94.2069 18.9362 93.0063 20.4165 93.0064C21.893 93.0062 23.0936 94.2016 23.0935 95.6819C23.0938 97.1584 21.8983 98.359 20.418 98.3588C18.9415 98.3591 17.7409 97.1637 17.7411 95.6834ZM17.7486 107.861C17.7483 106.385 18.9437 105.184 20.424 105.184C21.9005 105.184 23.1011 106.379 23.1009 107.86C23.1012 109.336 21.9058 110.537 20.4255 110.537C18.949 110.537 17.7484 109.342 17.7486 107.861ZM20.433 122.715C18.9565 122.715 17.7559 121.519 17.756 120.039C17.7557 118.563 18.9512 117.362 20.4315 117.362C21.908 117.362 23.1086 118.557 23.1084 120.038C23.1087 121.514 21.9133 122.715 20.433 122.715Z" fill="#EECAD5"/>
<g opacity="0.8">
<path opacity="0.8" d="M25.5712 12.4998C25.75 14.0308 25.9051 15.567 26.0328 17.1077C26.1696 18.7725 26.2753 20.4415 26.3809 22.1105L71.2087 18.7127C70.9524 17.1192 70.7943 15.5058 70.7558 13.8905C70.7389 13.2157 70.739 12.5275 70.5098 11.8944C70.4222 11.6462 70.2954 11.4051 70.3019 11.1406C70.305 10.941 70.384 10.7499 70.4212 10.5541C70.4738 10.2562 70.4229 9.95446 70.3754 9.65693C70.3248 8.97456 69.8546 7.95306 70.0061 7.25099L25.4185 10.6333C25.5409 11.2237 25.5151 11.9706 25.5788 12.5006L25.5712 12.4998Z" fill="#F6EACB"/>
</g>
</g>
<defs>
<filter id="filter0_dd_244_17241" x="-6.39686" y="-5.39686" width="153.862" height="154.739" filterUnits="userSpaceOnUse" color-interpolation-filters="sRGB">
<feFlood flood-opacity="0" result="BackgroundImageFix"/>
<feColorMatrix in="SourceAlpha" type="matrix" values="0 0 0 0 0 0 0 0 0 0 0 0 0 0 0 0 0 0 127 0" result="hardAlpha"/>
<feMorphology radius="1.1125" operator="dilate" in="SourceAlpha" result="effect1_dropShadow_244_17241"/>
<feOffset dx="0.278124" dy="0.278124"/>
<feGaussianBlur stdDeviation="2.78124"/>
<feComposite in2="hardAlpha" operator="out"/>
<feColorMatrix type="matrix" values="0 0 0 0 0 0 0 0 0 0 0 0 0 0 0 0 0 0 0.04 0"/>
<feBlend mode="normal" in2="BackgroundImageFix" result="effect1_dropShadow_244_17241"/>
<feColorMatrix in="SourceAlpha" type="matrix" values="0 0 0 0 0 0 0 0 0 0 0 0 0 0 0 0 0 0 127 0" result="hardAlpha"/>
<feOffset dx="2.78124" dy="2.78124"/>
<feGaussianBlur stdDeviation="2.78124"/>
<feComposite in2="hardAlpha" operator="out"/>
<feColorMatrix type="matrix" values="0 0 0 0 0 0 0 0 0 0 0 0 0 0 0 0 0 0 0.04 0"/>
<feBlend mode="normal" in2="effect1_dropShadow_244_17241" result="effect2_dropShadow_244_17241"/>
<feBlend mode="normal" in="SourceGraphic" in2="effect2_dropShadow_244_17241" result="shape"/>
</filter>
</defs>
</svg>
