<svg width="130" height="137" viewBox="0 0 130 137" fill="none" xmlns="http://www.w3.org/2000/svg">
<g filter="url(#filter0_dd_244_17242)">
<path d="M120.224 14.9118L8.3028 15.3494L8.74035 127.271L120.662 126.833L120.224 14.9118Z" fill="white"/>
<path d="M120.171 14.8812L120.647 126.802L120.743 126.802L120.266 14.8808L120.171 14.8812Z" fill="#D1E9F6"/>
<path d="M120.764 126.849L120.573 126.851L120.569 126.806L120.127 14.8383L120.318 14.8362L120.322 14.882L120.764 126.849Z" fill="#D1E9F6"/>
<path d="M115.303 14.9018L115.78 126.823L115.875 126.823L115.399 14.9013L115.303 14.9018Z" fill="#D1E9F6"/>
<path d="M115.9 126.867L115.709 126.869L115.706 126.824L115.263 14.8563L115.455 14.8543L115.458 14.9L115.9 126.867Z" fill="#D1E9F6"/>
<path d="M110.436 14.9189L110.912 126.84L111.008 126.84L110.531 14.9185L110.436 14.9189Z" fill="#D1E9F6"/>
<path d="M111.033 126.886L110.841 126.888L110.838 126.842L110.396 14.8749L110.587 14.8728L110.59 14.9186L111.033 126.886Z" fill="#D1E9F6"/>
<path d="M105.568 14.9394L106.045 126.861L106.14 126.86L105.664 14.9389L105.568 14.9394Z" fill="#D1E9F6"/>
<path d="M106.165 126.908L105.974 126.91L105.971 126.865L105.529 14.8973L105.72 14.8953L105.723 14.941L106.165 126.908Z" fill="#D1E9F6"/>
<path d="M100.704 14.9601L101.181 126.881L101.277 126.881L100.8 14.9597L100.704 14.9601Z" fill="#D1E9F6"/>
<path d="M101.302 126.927L101.11 126.925L101.111 126.879L100.665 14.9117L100.856 14.9097L100.855 14.9557L101.302 126.927Z" fill="#D1E9F6"/>
<path d="M95.8369 14.977L96.3135 126.898L96.409 126.898L95.9324 14.9766L95.8369 14.977Z" fill="#D1E9F6"/>
<path d="M96.4342 126.945L96.2428 126.947L96.2431 126.897L95.7971 14.9303L95.9885 14.9283L95.9882 14.9781L96.4342 126.945Z" fill="#D1E9F6"/>
<path d="M90.9693 14.9977L91.4459 126.919L91.5415 126.919L91.0648 14.9973L90.9693 14.9977Z" fill="#D1E9F6"/>
<path d="M91.5666 126.964L91.3752 126.966L91.3755 126.916L90.9333 14.9486L91.1209 14.9468L91.1244 14.9964L91.5666 126.964Z" fill="#D1E9F6"/>
<path d="M86.1055 15.0182L86.5822 126.939L86.6777 126.939L86.2011 15.0178L86.1055 15.0182Z" fill="#D1E9F6"/>
<path d="M86.7029 126.982L86.5115 126.984L86.5121 126.938L86.0658 14.9669L86.2575 14.9687L86.2569 15.0147L86.7029 126.982Z" fill="#D1E9F6"/>
<path d="M81.2418 15.0351L81.7184 126.956L81.8139 126.956L81.3373 15.0347L81.2418 15.0351Z" fill="#D1E9F6"/>
<path d="M81.8357 127.004L81.644 127.002L81.6446 126.956L81.1986 14.9894L81.39 14.9873L81.3894 15.0334L81.8357 127.004Z" fill="#D1E9F6"/>
<path d="M76.3742 15.0558L76.8508 126.977L76.9464 126.977L76.4697 15.0554L76.3742 15.0558Z" fill="#D1E9F6"/>
<path d="M76.9682 127.023L76.7768 127.025L76.7735 126.979L76.3314 15.0116L76.5227 15.0096L76.526 15.0553L76.9682 127.023Z" fill="#D1E9F6"/>
<path d="M71.5067 15.0766L71.9833 126.998L72.0789 126.997L71.6022 15.0762L71.5067 15.0766Z" fill="#D1E9F6"/>
<path d="M72.1044 127.041L71.913 127.043L71.9098 126.997L71.4676 15.0299L71.659 15.0279L71.6622 15.0736L72.1044 127.041Z" fill="#D1E9F6"/>
<path d="M66.6392 15.0934L67.1158 127.015L67.2113 127.014L66.7347 15.093L66.6392 15.0934Z" fill="#D1E9F6"/>
<path d="M67.2369 127.059L67.0455 127.062L67.0423 127.016L66.6001 15.0485L66.7915 15.0464L66.7947 15.0922L67.2369 127.059Z" fill="#D1E9F6"/>
<path d="M61.7754 15.1142L62.252 127.035L62.3475 127.035L61.8709 15.1138L61.7754 15.1142Z" fill="#D1E9F6"/>
<path d="M62.3696 127.082L62.1782 127.084L62.175 127.038L61.7328 15.0707L61.9242 15.0686L61.9274 15.1144L62.3696 127.082Z" fill="#D1E9F6"/>
<path d="M56.9078 15.1349L57.3845 127.056L57.48 127.056L57.0034 15.1345L56.9078 15.1349Z" fill="#D1E9F6"/>
<path d="M57.5059 127.1L57.3145 127.102L57.3112 127.056L56.8691 15.089L57.0604 15.087L57.0637 15.1327L57.5059 127.1Z" fill="#D1E9F6"/>
<path d="M52.0403 15.1518L52.5169 127.073L52.6124 127.073L52.1358 15.1514L52.0403 15.1518Z" fill="#D1E9F6"/>
<path d="M52.6384 127.119L52.447 127.121L52.4438 127.075L52.0016 15.1075L52.193 15.1055L52.1962 15.1512L52.6384 127.119ZM52.5434 127.022L52.2895 63.6108L52.5396 127.022L52.5434 127.022Z" fill="#D1E9F6"/>
<path d="M47.1727 15.1725L47.6494 127.094L47.7449 127.093L47.2683 15.1721L47.1727 15.1725Z" fill="#D1E9F6"/>
<path d="M47.7709 127.137L47.5795 127.139L47.5763 127.093L47.1341 15.1261L47.3255 15.1241L47.3287 15.1698L47.7709 127.137Z" fill="#D1E9F6"/>
<path d="M42.3128 15.1927L42.7894 127.114L42.885 127.114L42.4083 15.1923L42.3128 15.1927Z" fill="#D1E9F6"/>
<path d="M42.9074 127.159L42.7158 127.157L42.7163 127.111L42.2701 15.1405L42.4617 15.1423L42.4611 15.1883L42.9074 127.159Z" fill="#D1E9F6"/>
<path d="M37.4452 15.2097L37.9219 127.131L38.0174 127.13L37.5408 15.2092L37.4452 15.2097Z" fill="#D1E9F6"/>
<path d="M38.0399 127.178L37.8485 127.18L37.8488 127.13L37.4028 15.1627L37.5942 15.1607L37.5936 15.2067L38.0399 127.178Z" fill="#D1E9F6"/>
<path d="M32.5777 15.2304L33.0543 127.152L33.1498 127.151L32.6732 15.23L32.5777 15.2304Z" fill="#D1E9F6"/>
<path d="M33.1724 127.196L32.9848 127.198L32.9813 127.148L32.5391 15.181L32.7305 15.179L32.7302 15.2288L33.1724 127.196Z" fill="#D1E9F6"/>
<path d="M27.7101 15.2473L28.1867 127.168L28.2822 127.168L27.8056 15.2468L27.7101 15.2473Z" fill="#D1E9F6"/>
<path d="M28.3086 127.214L28.1172 127.216L28.1178 127.17L27.6715 15.1996L27.8632 15.2014L27.8626 15.2474L28.3086 127.214Z" fill="#D1E9F6"/>
<path d="M22.8464 15.268L23.323 127.189L23.4185 127.189L22.9419 15.2676L22.8464 15.268Z" fill="#D1E9F6"/>
<path d="M23.4414 127.237L23.25 127.239L23.2468 127.193L22.8046 15.2257L22.996 15.2237L22.9992 15.2694L23.4414 127.237Z" fill="#D1E9F6"/>
<path d="M17.9788 15.2887L18.4554 127.21L18.551 127.21L18.0743 15.2883L17.9788 15.2887Z" fill="#D1E9F6"/>
<path d="M18.5777 127.255L18.3863 127.257L18.383 127.211L17.9406 15.2401L18.132 15.2381L18.1352 15.2838L18.5774 127.251L18.5777 127.255Z" fill="#D1E9F6"/>
<path d="M13.1113 15.3056L13.5879 127.227L13.6834 127.226L13.2068 15.3052L13.1113 15.3056Z" fill="#D1E9F6"/>
<path d="M13.7101 127.273L13.5187 127.276L13.5155 127.23L13.073 15.2587L13.2644 15.2566L13.2677 15.3024L13.7099 127.27L13.7101 127.273ZM13.6152 127.177L13.1677 15.3516L13.6114 127.177L13.6152 127.177Z" fill="#D1E9F6"/>
<path d="M8.24371 15.3263L8.72034 127.248L8.81587 127.247L8.33924 15.3259L8.24371 15.3263Z" fill="#D1E9F6"/>
<path d="M8.84257 127.292L8.65118 127.294L8.64794 127.248L8.20548 15.2772L8.39687 15.2752L8.4001 15.3209L8.8423 127.288L8.84257 127.292ZM8.74763 127.195L8.30423 15.3737L8.7479 127.199L8.74763 127.195Z" fill="#D1E9F6"/>
<path d="M120.668 126.848L8.74703 127.295L8.74793 127.199L120.669 126.753L120.668 126.848Z" fill="#D1E9F6"/>
<path d="M120.717 126.895L120.672 126.898L8.70427 127.34L8.70224 127.149L8.74798 127.145L120.715 126.703L120.717 126.895Z" fill="#D1E9F6"/>
<path d="M120.65 121.981L8.72854 122.427L8.72943 122.331L120.651 121.889L120.65 121.981Z" fill="#D1E9F6"/>
<path d="M120.699 122.031L120.653 122.034L8.68602 122.476L8.68397 122.285L8.72971 122.282L120.697 121.84L120.699 122.031Z" fill="#D1E9F6"/>
<path d="M120.631 117.117L8.71002 117.56L8.71118 117.468L120.628 117.022L120.631 117.117Z" fill="#D1E9F6"/>
<path d="M120.677 117.164L120.631 117.167L8.66368 117.609L8.66165 117.418L8.70739 117.414L120.675 116.972L120.677 117.164Z" fill="#D1E9F6"/>
<path d="M120.609 112.25L8.69173 112.696L8.68879 112.601L120.61 112.154L120.609 112.25Z" fill="#D1E9F6"/>
<path d="M120.658 112.296L120.612 112.299L8.64519 112.742L8.64314 112.55L8.68887 112.547L120.656 112.105L120.658 112.296Z" fill="#D1E9F6"/>
<path d="M120.591 107.386L8.66946 107.829L8.67035 107.733L120.592 107.29L120.591 107.386Z" fill="#D1E9F6"/>
<path d="M120.64 107.432L120.594 107.436L8.62694 107.878L8.62491 107.686L8.67065 107.683L120.638 107.241L120.64 107.432Z" fill="#D1E9F6"/>
<path d="M120.572 102.519L8.65094 102.961L8.65208 102.869L120.573 102.423L120.572 102.519Z" fill="#D1E9F6"/>
<path d="M120.621 102.565L120.576 102.568L8.60838 103.01L8.60633 102.819L8.65207 102.816L120.619 102.374L120.621 102.565Z" fill="#D1E9F6"/>
<path d="M120.554 97.6511L8.63265 98.0977L8.63355 98.0019L120.555 97.5553L120.554 97.6511Z" fill="#D1E9F6"/>
<path d="M120.599 97.6975L120.553 97.7008L8.58604 98.143L8.58402 97.9516L8.62976 97.9483L120.597 97.5061L120.599 97.6975Z" fill="#D1E9F6"/>
<path d="M120.535 92.7873L8.61416 93.2301L8.61124 93.1345L120.533 92.6917L120.535 92.7873Z" fill="#D1E9F6"/>
<path d="M120.581 92.834L120.535 92.8373L8.56786 93.2795L8.56583 93.0881L8.61157 93.0848L120.579 92.6426L120.581 92.834Z" fill="#D1E9F6"/>
<path d="M120.513 87.9202L8.59179 88.363L8.59296 88.2709L120.514 87.8244L120.513 87.9202Z" fill="#D1E9F6"/>
<path d="M120.562 87.9663L120.517 87.9696L8.5493 88.4118L8.54725 88.2204L8.59299 88.2172L120.56 87.775L120.562 87.9663Z" fill="#D1E9F6"/>
<path d="M120.495 83.0525L8.57357 83.4991L8.57446 83.4033L120.496 82.9567L120.495 83.0525Z" fill="#D1E9F6"/>
<path d="M120.544 83.1028L120.498 83.106L8.53105 83.5482L8.52902 83.3569L8.57476 83.3536L120.542 82.9114L120.544 83.1028Z" fill="#D1E9F6"/>
<path d="M120.476 78.1889L8.55508 78.6317L8.55595 78.5358L120.477 78.0931L120.476 78.1889Z" fill="#D1E9F6"/>
<path d="M120.526 78.2351L120.48 78.2384L8.51256 78.6806L8.51051 78.4892L8.55625 78.4859L120.524 78.0438L120.526 78.2351Z" fill="#D1E9F6"/>
<path d="M120.458 73.3213L8.53677 73.7679L8.53384 73.6723L120.455 73.2257L120.458 73.3213Z" fill="#D1E9F6"/>
<path d="M120.503 73.368L120.458 73.3712L8.49022 73.8134L8.48819 73.622L8.53393 73.6188L120.501 73.1766L120.503 73.368Z" fill="#D1E9F6"/>
<path d="M120.435 68.4541L8.51449 68.9007L8.51536 68.8049L120.436 68.3583L120.435 68.4541Z" fill="#D1E9F6"/>
<path d="M120.485 68.5042L120.439 68.5074L8.47197 68.9496L8.46992 68.7582L8.51566 68.755L120.483 68.3128L120.485 68.5042Z" fill="#D1E9F6"/>
<path d="M120.417 63.5905L8.49593 64.0333L8.49683 63.9374L120.418 63.4947L120.417 63.5905Z" fill="#D1E9F6"/>
<path d="M120.467 63.6367L120.421 63.64L8.45348 64.0822L8.45145 63.8908L8.49719 63.8876L120.464 63.4454L120.467 63.6367Z" fill="#D1E9F6"/>
<path d="M120.399 58.7229L8.47775 59.1695L8.47862 59.0737L120.4 58.6271L120.399 58.7229Z" fill="#D1E9F6"/>
<path d="M120.448 58.7691L120.402 58.7723L8.43492 59.2145L8.43289 59.0231L8.47863 59.0199L120.446 58.5777L120.448 58.7691Z" fill="#D1E9F6"/>
<path d="M120.38 53.8552L8.45925 54.3018L8.45633 54.2063L120.377 53.7597L120.38 53.8552Z" fill="#D1E9F6"/>
<path d="M120.426 53.9056L120.38 53.9088L8.41289 54.351L8.41086 54.1596L8.4566 54.1564L120.424 53.7142L120.426 53.9056Z" fill="#D1E9F6"/>
<path d="M120.358 48.9919L8.43685 49.4346L8.43775 49.3388L120.359 48.896L120.358 48.9919Z" fill="#D1E9F6"/>
<path d="M120.407 49.0381L120.362 49.0414L8.39433 49.4836L8.39231 49.2922L8.43804 49.2889L120.405 48.8467L120.407 49.0381Z" fill="#D1E9F6"/>
<path d="M120.34 44.1243L8.41866 44.5709L8.41956 44.475L120.341 44.0285L120.34 44.1243Z" fill="#D1E9F6"/>
<path d="M120.389 44.1707L120.343 44.1739L8.37584 44.6161L8.37379 44.4247L8.41953 44.4215L120.387 43.9793L120.389 44.1707Z" fill="#D1E9F6"/>
<path d="M120.321 39.2566L8.40011 39.7032L8.401 39.6074L120.322 39.1646L120.321 39.2566Z" fill="#D1E9F6"/>
<path d="M120.371 39.3069L120.325 39.3102L8.35759 39.7524L8.35556 39.561L8.4013 39.5577L120.369 39.1155L120.371 39.3069Z" fill="#D1E9F6"/>
<path d="M120.303 34.393L8.38161 34.8358L8.37869 34.7402L120.3 34.2974L120.303 34.393Z" fill="#D1E9F6"/>
<path d="M120.348 34.4397L120.303 34.443L8.33531 34.8852L8.33326 34.6938L8.379 34.6905L120.346 34.2483L120.348 34.4397Z" fill="#D1E9F6"/>
<path d="M120.281 29.5259L8.35952 29.9725L8.36041 29.8767L120.281 29.4301L120.281 29.5259Z" fill="#D1E9F6"/>
<path d="M120.33 29.5721L120.284 29.5753L8.31676 30.0175L8.31473 29.8261L8.36047 29.8229L120.328 29.3807L120.33 29.5721Z" fill="#D1E9F6"/>
<path d="M120.262 24.6582L8.34103 25.1048L8.3419 25.009L120.263 24.5662L120.262 24.6582Z" fill="#D1E9F6"/>
<path d="M120.312 24.7083L120.266 24.7115L8.29851 25.1537L8.29646 24.9623L8.3422 24.9591L120.31 24.5169L120.312 24.7083Z" fill="#D1E9F6"/>
<path d="M120.244 19.7945L8.32251 20.2372L8.32367 20.1452L120.245 19.6986L120.244 19.7945Z" fill="#D1E9F6"/>
<path d="M120.293 19.8409L120.247 19.8441L8.28001 20.2863L8.27796 20.0949L8.32372 20.0917L120.295 19.6492L120.293 19.8409Z" fill="#D1E9F6"/>
<path d="M120.225 14.927L8.30422 15.3736L8.3013 15.2781L120.222 14.8315L120.225 14.927Z" fill="#D1E9F6"/>
<path d="M120.271 14.9736L120.225 14.9769L8.25389 15.4193L8.25184 15.228L8.29758 15.2247L120.265 14.7825L120.267 14.9739L120.271 14.9736Z" fill="#D1E9F6"/>
<path opacity="0.8" d="M85.0023 12.4948C84.96 11.0843 84.7005 9.68907 84.643 8.2796C84.6224 7.77157 84.5595 7.09799 84.6625 6.55057L47.9663 7.60882C48.3459 8.64309 48.1766 10.3674 48.2204 11.2032C48.3532 13.8408 48.4823 16.4788 48.5117 19.116L85.078 18.0631C84.7477 16.2631 85.0611 14.3562 85.0026 12.4986L85.0023 12.4948Z" fill="#F1D3CE"/>
</g>
<defs>
<filter id="filter0_dd_244_17242" x="-5.96961" y="-3.94251" width="144.072" height="148.905" filterUnits="userSpaceOnUse" color-interpolation-filters="sRGB">
<feFlood flood-opacity="0" result="BackgroundImageFix"/>
<feColorMatrix in="SourceAlpha" type="matrix" values="0 0 0 0 0 0 0 0 0 0 0 0 0 0 0 0 0 0 127 0" result="hardAlpha"/>
<feMorphology radius="1.1125" operator="dilate" in="SourceAlpha" result="effect1_dropShadow_244_17242"/>
<feOffset dx="0.278124" dy="0.278124"/>
<feGaussianBlur stdDeviation="2.78124"/>
<feComposite in2="hardAlpha" operator="out"/>
<feColorMatrix type="matrix" values="0 0 0 0 0 0 0 0 0 0 0 0 0 0 0 0 0 0 0.04 0"/>
<feBlend mode="normal" in2="BackgroundImageFix" result="effect1_dropShadow_244_17242"/>
<feColorMatrix in="SourceAlpha" type="matrix" values="0 0 0 0 0 0 0 0 0 0 0 0 0 0 0 0 0 0 127 0" result="hardAlpha"/>
<feOffset dx="2.78124" dy="2.78124"/>
<feGaussianBlur stdDeviation="2.78124"/>
<feComposite in2="hardAlpha" operator="out"/>
<feColorMatrix type="matrix" values="0 0 0 0 0 0 0 0 0 0 0 0 0 0 0 0 0 0 0.04 0"/>
<feBlend mode="normal" in2="effect1_dropShadow_244_17242" result="effect2_dropShadow_244_17242"/>
<feBlend mode="normal" in="SourceGraphic" in2="effect2_dropShadow_244_17242" result="shape"/>
</filter>
</defs>
</svg>
