<svg width="150" height="140" viewBox="0 0 150 140" fill="none" xmlns="http://www.w3.org/2000/svg">
<g filter="url(#filter0_dd_244_17246)">
<path d="M130.714 16.9448L18.7928 17.5242L19.3722 129.445L131.293 128.865L130.714 16.9448Z" fill="#FFF5DA"/>
<path d="M18.8401 17.5247L18.7446 17.5251L19.324 129.446L19.4195 129.445L18.8401 17.5247Z" fill="#FFF5DA"/>
<path d="M26.8495 17.4683L26.754 17.4688L27.3334 129.389L27.4289 129.389L26.8495 17.4683Z" fill="#FFF5DA"/>
<path d="M34.8301 17.4404L34.7346 17.4409L35.314 129.362L35.4096 129.361L34.8301 17.4404Z" fill="#FFF5DA"/>
<path d="M42.8355 17.3877L42.74 17.3882L43.3194 129.309L43.4149 129.308L42.8355 17.3877Z" fill="#FFF5DA"/>
<path d="M50.8199 17.3603L50.7244 17.3608L51.3038 129.282L51.3993 129.281L50.8199 17.3603Z" fill="#FFF5DA"/>
<path d="M58.8128 17.3181L58.7172 17.3186L59.2966 129.239L59.3922 129.239L58.8128 17.3181Z" fill="#FFF5DA"/>
<path d="M66.8059 17.2761L66.7103 17.2766L67.2897 129.197L67.3853 129.197L66.8059 17.2761Z" fill="#FFF5DA"/>
<path d="M74.8028 17.2339L74.7073 17.2344L75.2867 129.155L75.3822 129.155L74.8028 17.2339Z" fill="#FFF5DA"/>
<path d="M82.7956 17.1958L82.7001 17.1963L83.2795 129.117L83.375 129.117L82.7956 17.1958Z" fill="#FFF5DA"/>
<path d="M90.7925 17.1538L90.697 17.1543L91.2764 129.075L91.372 129.075L90.7925 17.1538Z" fill="#FFF5DA"/>
<path d="M98.7819 17.1116L98.6864 17.1121L99.2658 129.033L99.3613 129.032L98.7819 17.1116Z" fill="#FFF5DA"/>
<path d="M106.779 17.0696L106.683 17.0701L107.262 128.991L107.358 128.99L106.779 17.0696Z" fill="#FFF5DA"/>
<path d="M114.772 17.0276L114.676 17.0281L115.256 128.949L115.351 128.948L114.772 17.0276Z" fill="#FFF5DA"/>
<path d="M122.769 16.9856L122.673 16.9861L123.253 128.907L123.348 128.906L122.769 16.9856Z" fill="#FFF5DA"/>
<path d="M130.761 16.9473L130.666 16.9478L131.245 128.868L131.341 128.868L130.761 16.9473Z" fill="#FFF5DA"/>
<path d="M130.76 21.0566L130.758 20.865L126.808 20.8865L126.786 16.9363L126.594 16.9385L126.616 20.8888L118.811 20.9307L118.79 16.9805L118.598 16.9827L118.62 20.933L110.815 20.9712L110.794 17.0209L110.602 17.0231L110.624 20.9734L102.819 21.0115L102.798 17.0613L102.606 17.0635L102.627 21.0138L94.823 21.052L94.8015 17.1017L94.6098 17.1039L94.6314 21.0542L86.8267 21.0962L86.8051 17.1459L86.6134 17.1482L86.635 21.0984L78.8306 21.1366L78.809 17.1863L78.6174 17.1886L78.6389 21.1388L70.8345 21.177L70.8129 17.2267L70.6213 17.229L70.6428 21.1792L62.8381 21.2212L62.8166 17.271L62.6249 17.2732L62.6465 21.2235L54.8418 21.2654L54.8202 17.3152L54.6286 17.3174L54.6501 21.2677L46.8457 21.3058L46.8241 17.3556L46.6325 17.3578L46.654 21.3081L38.8493 21.3501L38.8278 17.3998L38.6361 17.402L38.6577 21.3523L30.853 21.3943L30.8314 17.444L30.6398 17.4463L30.6613 21.3965L22.8566 21.4385L22.8351 17.4882L22.6434 17.4905L22.665 21.4407L18.7147 21.4623L18.7169 21.6539L22.6672 21.6324L22.7092 29.4371L18.7589 29.4586L18.7612 29.6503L22.7114 29.6287L22.7534 37.4334L18.8032 37.455L18.8054 37.6466L22.7556 37.6251L22.7976 45.4298L18.8473 45.4513L18.8496 45.643L22.7999 45.6214L22.838 53.4259L18.8878 53.4474L18.89 53.6391L22.8403 53.6175L22.8822 61.4222L18.932 61.4438L18.9342 61.6354L22.8845 61.6139L22.9265 69.4186L18.9762 69.4401L18.9784 69.6318L22.9287 69.6103L22.9669 77.4147L19.0166 77.4362L19.0189 77.6279L22.9691 77.6064L23.0073 85.4108L19.057 85.4323L19.0593 85.624L23.0095 85.6024L23.0515 93.4071L19.1012 93.4287L19.1035 93.6204L23.0537 93.5988L23.0919 101.403L19.1416 101.425L19.1439 101.616L23.0942 101.595L23.1361 109.4L19.1859 109.421L19.1881 109.613L23.1383 109.591L23.1765 117.396L19.2263 117.417L19.2285 117.609L23.1788 117.587L23.2207 125.392L19.2705 125.414L19.2727 125.605L23.223 125.584L23.2445 129.534L23.4362 129.532L23.4147 125.581L31.2191 125.543L31.2406 129.494L31.4323 129.491L31.4107 125.541L39.2154 125.499L39.237 129.449L39.4286 129.447L39.4071 125.497L47.2118 125.455L47.2333 129.405L47.425 129.403L47.4034 125.453L55.2079 125.414L55.2294 129.365L55.4211 129.362L55.3995 125.412L63.2042 125.37L63.2258 129.321L63.4174 129.318L63.3959 125.368L71.2006 125.326L71.2221 129.276L71.4138 129.274L71.3922 125.324L79.1969 125.282L79.2185 129.232L79.4102 129.23L79.3886 125.28L87.193 125.241L87.2146 129.192L87.4062 129.189L87.3847 125.239L95.1894 125.197L95.2109 129.147L95.4026 129.145L95.381 125.195L103.186 125.153L103.207 129.103L103.399 129.101L103.377 125.151L111.182 125.113L111.203 129.063L111.395 129.061L111.373 125.11L119.178 125.072L119.199 129.022L119.391 129.02L119.37 125.07L127.174 125.028L127.196 128.978L127.387 128.976L127.366 125.026L131.316 125.004L131.314 124.812L127.364 124.834L127.322 117.029L131.272 117.008L131.27 116.816L127.319 116.838L127.281 109.033L131.232 109.012L131.229 108.82L127.279 108.842L127.237 101.037L131.187 101.015L131.185 100.824L127.235 100.845L127.193 93.0405L131.143 93.019L131.141 92.8273L127.191 92.8489L127.152 85.0444L131.103 85.0229L131.101 84.8312L127.15 84.8528L127.108 77.0481L131.059 77.0265L131.056 76.8349L127.106 76.8564L127.064 69.0517L131.014 69.0302L131.012 68.8385L127.062 68.8601L127.024 61.0556L130.974 61.0341L130.972 60.8424L127.021 60.864L126.979 53.0593L130.93 53.0377L130.927 52.8461L126.977 52.8676L126.939 45.0632L130.889 45.0416L130.887 44.85L126.937 44.8715L126.895 37.0668L130.845 37.0453L130.843 36.8536L126.893 36.8752L126.851 29.0705L130.801 29.0489L130.799 28.8572L126.848 28.8788L126.81 21.0744L130.76 21.0528L130.76 21.0566ZM118.626 21.1173L118.668 28.922L110.864 28.9601L110.822 21.1554L118.626 21.1173ZM71.097 69.1396L71.055 61.3349L78.8595 61.2967L78.9014 69.1014L71.0967 69.1434L71.097 69.1396ZM78.9001 69.289L78.9421 77.0937L71.1374 77.1357L71.0954 69.331L78.9001 69.289ZM70.9056 69.138L63.1012 69.1762L63.063 61.3718L70.8675 61.3336L70.9056 69.138ZM70.9079 69.3297L70.9498 77.1344L63.1454 77.1725L63.1034 69.3679L70.9079 69.3297ZM70.9483 77.3258L70.9903 85.1305L63.1856 85.1725L63.1474 77.368L70.9518 77.3299L70.9483 77.3258ZM71.1399 77.3235L78.9444 77.2854L78.9864 85.0901L71.1817 85.1321L71.1397 77.3274L71.1399 77.3235ZM79.136 77.2831L86.9407 77.2412L86.9789 85.0456L79.1742 85.0876L79.1322 77.2829L79.136 77.2831ZM79.1338 77.0915L79.0918 69.2868L86.8962 69.2486L86.9382 77.0533L79.1335 77.0953L79.1338 77.0915ZM79.0934 69.0954L79.0552 61.2909L86.8596 61.2528L86.8978 69.0572L79.0931 69.0992L79.0934 69.0954ZM79.0527 61.1031L79.0108 53.2984L86.8152 53.2603L86.8572 61.065L79.0527 61.1031ZM78.8611 61.1053L71.0563 61.1473L71.0144 53.3426L78.8191 53.3006L78.8611 61.1053ZM70.8649 61.1458L63.0602 61.1877L63.0183 53.383L70.8227 53.3449L70.8647 61.1496L70.8649 61.1458ZM62.8727 61.1864L55.0682 61.2246L55.0263 53.4199L62.8307 53.3817L62.8727 61.1864ZM62.8749 61.3781L62.9169 69.1828L55.1122 69.2247L55.074 61.4203L62.8787 61.3783L62.8749 61.3781ZM62.9156 69.3704L62.9576 77.1751L55.1529 77.217L55.1109 69.4123L62.9153 69.3742L62.9156 69.3704ZM62.956 77.3665L62.9942 85.1709L55.1895 85.2129L55.1475 77.4082L62.9522 77.3662L62.956 77.3665ZM62.9966 85.3587L63.0386 93.1634L55.2339 93.2054L55.1958 85.401L63.0002 85.3628L62.9966 85.3587ZM63.1883 85.3565L70.993 85.3145L71.035 93.1192L63.2305 93.1574L63.1924 85.3529L63.1883 85.3565ZM71.1806 85.3158L78.9853 85.2739L79.0273 93.0785L71.2226 93.1205L71.1806 85.3158ZM79.1767 85.2754L86.9811 85.2373L87.0231 93.0419L79.2184 93.0839L79.1802 85.2795L79.1767 85.2754ZM87.169 85.2348L94.9737 85.1928L95.0157 92.9975L87.211 93.0395L87.169 85.2348ZM87.1667 85.0431L87.1286 77.2387L94.9333 77.1967L94.9752 85.0014L87.1705 85.0434L87.1667 85.0431ZM87.1261 77.0508L87.0841 69.2461L94.8885 69.2079L94.9267 77.0124L87.122 77.0544L87.1261 77.0508ZM87.0856 69.0547L87.0475 61.2503L94.8522 61.2083L94.8941 69.013L87.0895 69.055L87.0856 69.0547ZM87.045 61.0624L87.0068 53.258L94.8113 53.2198L94.8533 61.0245L87.0486 61.0665L87.045 61.0624ZM87.0046 53.0663L86.9626 45.2616L94.7673 45.2197L94.8055 53.0241L87.0008 53.0661L87.0046 53.0663ZM86.8129 53.0686L79.0082 53.1106L78.9663 45.3059L86.7707 45.2677L86.8127 53.0724L86.8129 53.0686ZM78.8207 53.1093L71.0162 53.1474L70.9742 45.3427L78.7787 45.3046L78.8168 53.109L78.8207 53.1093ZM70.8246 53.1497L63.0201 53.1878L62.9782 45.3831L70.7828 45.3412L70.8248 53.1459L70.8246 53.1497ZM62.8323 53.1903L55.0276 53.2323L54.9856 45.4276L62.7903 45.3856L62.8285 53.1901L62.8323 53.1903ZM54.8362 53.2307L47.0318 53.2689L46.9936 45.4645L54.798 45.4263L54.84 53.231L54.8362 53.2307ZM54.8384 53.4224L54.8804 61.2271L47.0759 61.2653L47.034 53.4606L54.8387 53.4186L54.8384 53.4224ZM54.8788 61.4185L54.9208 69.2232L47.1161 69.2652L47.0779 61.4607L54.8824 61.4226L54.8788 61.4185ZM54.9195 69.4108L54.9615 77.2155L47.157 77.2536L47.1189 69.4492L54.9233 69.411L54.9195 69.4108ZM54.9599 77.4069L55.0019 85.2116L47.1972 85.2535L47.1552 77.4488L54.9597 77.4107L54.9599 77.4069ZM55.0006 85.3991L55.0425 93.2038L47.2378 93.2458L47.1959 85.4411L55.0003 85.4029L55.0006 85.3991ZM55.041 93.3952L55.0791 101.2L47.2747 101.238L47.2365 93.4334L55.041 93.3952ZM55.2326 93.393L63.0373 93.351L63.0793 101.156L55.2746 101.198L55.2364 93.3933L55.2326 93.393ZM63.2287 93.3526L71.0332 93.3144L71.0713 101.119L63.2666 101.161L63.2285 93.3564L63.2287 93.3526ZM71.221 93.3119L79.0257 93.2699L79.0677 101.075L71.263 101.117L71.2248 93.3122L71.221 93.3119ZM79.2171 93.2715L87.0218 93.2295L87.0599 101.034L79.2555 101.072L79.2135 93.2674L79.2171 93.2715ZM87.2094 93.2308L95.0141 93.1889L95.0522 100.993L87.2475 101.035L87.2055 93.2306L87.2094 93.2308ZM95.2055 93.1905L103.01 93.1485L103.052 100.953L95.2477 100.991L95.2095 93.1869L95.2055 93.1905ZM95.2032 92.9988L95.1613 85.1941L102.966 85.1521L103.004 92.9566L95.1997 92.9947L95.2032 92.9988ZM95.1628 85.0027L95.1247 77.1982L102.929 77.1601L102.971 84.9648L95.1664 85.0068L95.1628 85.0027ZM95.1221 77.0104L95.0802 69.2057L102.885 69.1637L102.927 76.9684L95.1221 77.0104ZM95.0817 69.0143L95.0436 61.2099L102.848 61.1717L102.886 68.9762L95.0815 69.0181L95.0817 69.0143ZM95.0411 61.022L94.9991 53.2173L102.804 53.1792L102.846 60.9839L95.0408 61.0259L95.0411 61.022ZM95.0007 53.0259L94.9625 45.2215L102.767 45.1834L102.805 52.9878L95.0007 53.0259ZM94.96 45.0337L94.918 37.229L102.722 37.1908L102.764 44.9955L94.9597 45.0375L94.96 45.0337ZM94.7683 45.0359L86.9639 45.0741L86.9219 37.2694L94.7264 37.2312L94.7683 45.0359ZM86.7723 45.0763L78.9678 45.1145L78.9258 37.3098L86.7305 37.2678L86.7687 45.0722L86.7723 45.0763ZM78.78 45.117L70.9753 45.159L70.9333 37.3543L78.738 37.3123L78.78 45.117ZM70.7839 45.1574L62.9795 45.1956L62.9375 37.3909L70.7419 37.3527L70.7839 45.1574ZM62.7916 45.1981L54.9872 45.2362L54.9452 37.4315L62.7499 37.3895L62.7919 45.1942L62.7916 45.1981ZM54.7955 45.2385L46.9911 45.2766L46.9491 37.4719L54.7538 37.43L54.7958 45.2347L54.7955 45.2385ZM46.8032 45.2791L38.9985 45.3211L38.9566 37.5164L46.7613 37.4744L46.8032 45.2791ZM46.8055 45.4708L46.8436 53.2752L39.0392 53.3134L38.9972 45.5087L46.8019 45.4667L46.8055 45.4708ZM46.8461 53.4631L46.8881 61.2677L39.0834 61.3097L39.0453 53.5053L46.8499 53.4633L46.8461 53.4631ZM46.8866 61.4591L46.9285 69.2638L39.1241 69.302L39.0859 61.4976L46.8904 61.4594L46.8866 61.4591ZM46.9272 69.4514L46.9654 77.2559L39.1607 77.2979L39.1187 69.4932L46.9234 69.4512L46.9272 69.4514ZM46.9676 77.4475L47.0058 85.252L39.2011 85.2939L39.1629 77.4895L46.9673 77.4513L46.9676 77.4475ZM47.0083 85.4398L47.0503 93.2445L39.2458 93.2827L39.2077 85.4782L47.0124 85.4363L47.0083 85.4398ZM47.0487 93.4359L47.0869 101.24L39.2822 101.282L39.244 93.4779L47.0487 93.4359ZM47.0894 101.428L47.1275 109.233L39.3228 109.275L39.2809 101.47L47.0856 101.428L47.0894 101.428ZM47.281 101.426L55.0855 101.388L55.1274 109.192L47.3227 109.234L47.2808 101.43L47.281 101.426ZM55.2733 101.385L63.078 101.343L63.1162 109.148L55.3115 109.19L55.2695 101.385L55.2733 101.385ZM63.2694 101.345L71.0741 101.303L71.1161 109.108L63.3116 109.146L63.2697 101.341L63.2694 101.345ZM71.2617 101.304L79.0664 101.262L79.1083 109.067L71.3036 109.109L71.2617 101.304ZM79.2578 101.264L87.0625 101.222L87.1044 109.027L79.2997 109.068L79.2578 101.264ZM87.25 101.223L95.0547 101.181L95.0967 108.986L87.292 109.028L87.25 101.223ZM95.2461 101.183L103.051 101.141L103.093 108.945L95.2884 108.984L95.2464 101.179L95.2461 101.183ZM103.238 101.142L111.043 101.1L111.081 108.905L103.277 108.946L103.235 101.142L103.238 101.142ZM103.236 100.95L103.198 93.146L111.003 93.104L111.045 100.909L103.24 100.947L103.236 100.95ZM103.196 92.9581L103.154 85.1534L110.958 85.1114L111 92.9161L103.196 92.9581ZM103.155 84.962L103.117 77.1576L110.922 77.1156L110.96 84.9201L103.155 84.962ZM103.114 76.9698L103.072 69.1651L110.877 69.1231L110.919 76.9278L103.114 76.9698ZM103.074 68.9737L103.036 61.1692L110.84 61.131L110.878 68.9355L103.074 68.9775L103.074 68.9737ZM103.033 60.9814L102.991 53.1767L110.796 53.1347L110.838 60.9394L103.033 60.9814ZM102.993 52.9853L102.955 45.1808L110.759 45.1427L110.801 52.9474L102.997 52.9893L102.993 52.9853ZM102.952 44.993L102.91 37.1883L110.715 37.1463L110.753 44.9508L102.948 44.9927L102.952 44.993ZM102.912 36.9969L102.87 29.1922L110.674 29.154L110.716 36.9587L102.912 36.9969ZM102.72 36.9991L94.9158 37.0373L94.8776 29.2329L102.682 29.1909L102.721 36.9953L102.72 36.9991ZM94.7279 37.0398L86.9232 37.0818L86.8851 29.2774L94.6898 29.2354L94.7279 37.0398ZM86.7318 37.0802L78.9274 37.1184L78.8892 29.3139L86.6937 29.2758L86.7318 37.0802ZM78.7396 37.1209L70.9351 37.159L70.8932 29.3543L78.6978 29.3124L78.7398 37.1171L78.7396 37.1209ZM70.7435 37.1613L62.939 37.1995L62.8971 29.3947L70.7018 29.3528L70.7399 37.1572L70.7435 37.1613ZM62.7512 37.202L54.9465 37.2439L54.9045 29.4392L62.7092 29.3973L62.7512 37.202ZM54.7551 37.2424L46.9507 37.2805L46.9125 29.4761L54.7172 29.4341L54.7592 37.2388L54.7551 37.2424ZM46.7628 37.283L38.9584 37.3212L38.9202 29.5168L46.7249 29.4748L46.7669 37.2795L46.7628 37.283ZM38.7667 37.3234L30.962 37.3654L30.9201 29.5607L38.7245 29.5225L38.7665 37.3272L38.7667 37.3234ZM38.769 37.5151L38.811 45.3198L31.0065 45.358L30.9683 37.5535L38.773 37.5115L38.769 37.5151ZM38.8094 45.5112L38.8513 53.3159L31.0469 53.354L31.0049 45.5494L38.8096 45.5074L38.8094 45.5112ZM38.85 53.5035L38.892 61.3082L31.0876 61.3463L31.0456 53.5416L38.85 53.5035ZM38.8905 61.4996L38.9324 69.3043L31.128 69.3424L31.0898 61.538L38.8945 61.496L38.8905 61.4996ZM38.9311 69.4918L38.9731 77.2965L31.1687 77.3347L31.1267 69.53L38.9311 69.4918ZM38.9715 77.4879L39.0097 85.2924L31.2052 85.3305L31.1633 77.5258L38.9677 77.4877L38.9715 77.4879ZM39.0122 85.4802L39.0542 93.2849L31.2497 93.3231L31.2077 85.5184L39.0122 85.4802ZM39.0526 93.4763L39.0908 101.281L31.2861 101.323L31.2479 93.5183L39.0523 93.4801L39.0526 93.4763ZM39.0933 101.469L39.1314 109.273L31.327 109.311L31.2888 101.507L39.0935 101.465L39.0933 101.469ZM39.1337 109.465L39.1718 117.269L31.3671 117.311L31.3251 109.506L39.1296 109.468L39.1337 109.465ZM39.3253 109.462L47.13 109.42L47.1682 117.225L39.3635 117.267L39.3215 109.462L39.3253 109.462ZM47.3214 109.422L55.1258 109.384L55.164 117.188L47.3596 117.226L47.3214 109.422ZM55.3137 109.381L63.1184 109.339L63.1566 117.144L55.3519 117.186L55.3137 109.381ZM63.3098 109.341L71.1145 109.299L71.1565 117.104L63.352 117.142L63.3139 109.337L63.3098 109.341ZM71.3021 109.3L79.1068 109.258L79.1449 117.063L71.3405 117.101L71.3023 109.296L71.3021 109.3ZM79.2982 109.26L87.1026 109.222L87.1446 117.026L79.3402 117.065L79.302 109.26L79.2982 109.26ZM87.2905 109.219L95.0952 109.177L95.1371 116.982L87.3324 117.024L87.2943 109.219L87.2905 109.219ZM95.2866 109.179L103.091 109.137L103.129 116.941L95.325 116.979L95.283 109.175L95.2866 109.179ZM103.279 109.138L111.084 109.096L111.125 116.901L103.321 116.939L103.283 109.135L103.279 109.138ZM111.275 109.098L119.08 109.056L119.122 116.86L111.317 116.902L111.279 109.098L111.275 109.098ZM111.273 108.906L111.231 101.101L119.035 101.059L119.077 108.864L111.273 108.902L111.273 108.906ZM111.232 100.91L111.19 93.1053L118.995 93.0633L119.033 100.868L111.229 100.906L111.232 100.91ZM111.192 92.9177L111.15 85.113L118.954 85.071L118.996 92.8757L111.192 92.9177ZM111.151 84.9216L111.113 77.1172L118.918 77.0752L118.956 84.8796L111.151 84.9216ZM111.111 76.9293L111.069 69.1246L118.873 69.0865L118.915 76.8912L111.11 76.9331L111.111 76.9293ZM111.07 68.9332L111.028 61.1285L118.833 61.0866L118.875 68.8913L111.07 68.9332ZM111.029 60.941L110.991 53.1365L118.796 53.0984L118.834 60.9028L111.029 60.9448L111.029 60.941ZM110.989 52.9449L110.947 45.1402L118.752 45.102L118.793 52.9067L110.989 52.9487L110.989 52.9449ZM110.948 44.9526L110.906 37.1479L118.711 37.1097L118.753 44.9144L110.948 44.9526ZM110.908 36.9565L110.87 29.152L118.674 29.1139L118.712 36.9183L110.908 36.9603L110.908 36.9565ZM110.634 21.158L110.676 28.9627L102.871 29.0046L102.833 21.2002L110.638 21.1582L110.634 21.158ZM102.638 21.1983L102.68 29.003L94.8754 29.0412L94.8334 21.2365L102.638 21.1983ZM94.6456 21.239L94.6876 29.0437L86.8831 29.0819L86.8411 21.2772L94.6458 21.2352L94.6456 21.239ZM86.6495 21.2794L86.6915 29.0841L78.887 29.1223L78.8451 21.3176L86.6495 21.2794ZM78.6572 21.3201L78.6991 29.1248L70.8944 29.1668L70.8525 21.3621L78.6572 21.3201ZM70.6611 21.3605L70.7031 29.1652L62.8986 29.2033L62.8566 21.3987L70.6613 21.3567L70.6611 21.3605ZM62.6688 21.4012L62.7108 29.2059L54.9063 29.244L54.8644 21.4393L62.6691 21.3974L62.6688 21.4012ZM54.6727 21.4416L54.7147 29.2463L46.91 29.2882L46.868 21.4835L54.6727 21.4416ZM46.6804 21.4822L46.7224 29.2869L38.9177 29.3289L38.8757 21.5242L46.6804 21.4822ZM38.6843 21.5226L38.7263 29.3273L30.9216 29.3693L30.8796 21.5646L38.6843 21.5226ZM22.8874 21.6053L30.6921 21.5633L30.7302 29.3677L22.9255 29.4097L22.8874 21.6053ZM22.9278 29.6014L30.7325 29.5594L30.7745 37.3641L22.9698 37.4061L22.9316 29.6016L22.9278 29.6014ZM22.9684 37.5937L30.7732 37.5517L30.8151 45.3564L23.0107 45.3945L22.9687 37.5898L22.9684 37.5937ZM23.0088 45.5897L30.8135 45.5478L30.8517 53.3522L23.047 53.3942L23.0088 45.5897ZM23.0495 53.582L30.8542 53.54L30.8962 61.3448L23.0915 61.3867L23.0495 53.582ZM23.0899 61.5781L30.8946 61.5362L30.9328 69.3406L23.1281 69.3826L23.0899 61.5781ZM23.1306 69.5704L30.935 69.5323L30.977 77.337L23.1723 77.3789L23.1303 69.5742L23.1306 69.5704ZM23.171 77.5665L30.9757 77.5245L31.0138 85.329L23.2091 85.3709L23.1672 77.5662L23.171 77.5665ZM23.2117 85.5588L31.0161 85.5206L31.0581 93.3253L23.2534 93.3673L23.2152 85.5629L23.2117 85.5588ZM23.2521 93.5549L31.0568 93.5129L31.0987 101.318L23.2941 101.36L23.2521 93.5549ZM23.2928 101.547L31.0972 101.509L31.1353 109.313L23.3307 109.355L23.2887 101.551L23.2928 101.547ZM23.3331 109.543L31.1376 109.505L31.1757 117.31L23.371 117.352L23.3329 109.547L23.3331 109.543ZM23.4158 125.34L23.3738 117.536L31.1785 117.494L31.2205 125.298L23.4158 125.34ZM31.4119 125.3L31.3699 117.495L39.1743 117.457L39.2163 125.262L31.4116 125.304L31.4119 125.3ZM39.4041 125.259L39.366 117.455L47.1707 117.413L47.2127 125.217L39.408 125.259L39.4041 125.259ZM47.4002 125.219L47.3583 117.414L55.163 117.372L55.2049 125.177L47.4002 125.219ZM55.3925 125.178L55.3544 117.374L63.159 117.332L63.201 125.136L55.3963 125.178L55.3925 125.178ZM63.3886 125.138L63.3504 117.333L71.1549 117.295L71.193 125.1L63.3883 125.141L63.3886 125.138ZM71.3809 125.097L71.339 117.292L79.1436 117.25L79.1856 125.055L71.3812 125.093L71.3809 125.097ZM79.377 125.057L79.335 117.252L87.1397 117.21L87.1817 125.015L79.3773 125.053L79.377 125.057ZM87.3693 125.016L87.3273 117.211L95.1318 117.173L95.1737 124.978L87.369 125.02L87.3693 125.016ZM95.3654 124.976L95.3272 117.171L103.132 117.133L103.174 124.938L95.3692 124.976L95.3654 124.976ZM103.358 124.935L103.316 117.13L111.12 117.088L111.162 124.893L103.358 124.931L103.358 124.935ZM111.354 124.894L111.312 117.09L119.116 117.052L119.154 124.856L111.35 124.894L111.354 124.894ZM127.151 124.812L119.346 124.854L119.304 117.049L127.108 117.011L127.15 124.816L127.151 124.812ZM127.11 116.816L119.306 116.858L119.264 109.053L127.068 109.011L127.106 116.815L127.11 116.816ZM127.07 108.823L119.265 108.862L119.223 101.057L127.028 101.015L127.07 108.82L127.07 108.823ZM127.029 100.827L119.225 100.869L119.186 93.0649L126.991 93.0229L127.029 100.827ZM126.989 92.8351L119.184 92.877L119.142 85.0724L126.947 85.0304L126.989 92.8351ZM126.948 84.839L119.143 84.881L119.105 77.0765L126.91 77.0345L126.952 84.8392L126.948 84.839ZM126.908 76.8467L119.103 76.8887L119.065 69.0842L126.869 69.0423L126.908 76.8467ZM126.867 68.8506L119.062 68.8926L119.02 61.0879L126.825 61.0459L126.867 68.8506ZM126.826 60.8583L119.022 60.9003L118.98 53.0956L126.784 53.0574L126.826 60.8621L126.826 60.8583ZM126.786 52.8622L118.981 52.9042L118.943 45.0998L126.748 45.0578L126.786 52.8622ZM126.745 44.8699L118.941 44.9119L118.899 37.1072L126.703 37.0652L126.745 44.8699ZM126.705 36.8739L118.9 36.9158L118.862 29.1114L126.667 29.0694L126.705 36.8739ZM126.664 28.8816L118.86 28.9197L118.818 21.115L126.623 21.0731L126.665 28.8778L126.664 28.8816Z" fill="#D1E9F6"/>
<path opacity="0.8" d="M138.914 36.0562C139.72 34.8971 139.16 32.5646 139.952 31.3968C140.237 30.9759 140.587 30.3946 140.999 30.0206L107.982 7.76714C107.69 8.83882 106.516 10.1145 106.055 10.8108C104.595 13.0092 103.131 15.2073 101.583 17.3462L134.491 39.5231C135.285 37.8692 137.859 37.5852 138.917 36.0602L138.914 36.0562Z" fill="#D1E9F6"/>
<path opacity="0.8" d="M42.3656 11.8042C41.5199 10.6703 40.4671 9.70986 39.6089 8.59038C39.2994 8.18626 38.8519 7.67314 38.6501 7.14998L6.78863 30.5455C7.7681 31.1217 6.72932 33.0425 7.24759 33.6983C8.87925 35.7744 12.3401 37.4813 13.8669 39.6346L45.5953 16.3373C44.2363 15.0917 43.4781 13.2934 42.3656 11.8042Z" fill="#D1E9F6"/>
</g>
<defs>
<filter id="filter0_dd_244_17246" x="-6.39686" y="-5.39686" width="157.098" height="152.891" filterUnits="userSpaceOnUse" color-interpolation-filters="sRGB">
<feFlood flood-opacity="0" result="BackgroundImageFix"/>
<feColorMatrix in="SourceAlpha" type="matrix" values="0 0 0 0 0 0 0 0 0 0 0 0 0 0 0 0 0 0 127 0" result="hardAlpha"/>
<feMorphology radius="1.1125" operator="dilate" in="SourceAlpha" result="effect1_dropShadow_244_17246"/>
<feOffset dx="0.278124" dy="0.278124"/>
<feGaussianBlur stdDeviation="2.78124"/>
<feComposite in2="hardAlpha" operator="out"/>
<feColorMatrix type="matrix" values="0 0 0 0 0 0 0 0 0 0 0 0 0 0 0 0 0 0 0.04 0"/>
<feBlend mode="normal" in2="BackgroundImageFix" result="effect1_dropShadow_244_17246"/>
<feColorMatrix in="SourceAlpha" type="matrix" values="0 0 0 0 0 0 0 0 0 0 0 0 0 0 0 0 0 0 127 0" result="hardAlpha"/>
<feOffset dx="2.78124" dy="2.78124"/>
<feGaussianBlur stdDeviation="2.78124"/>
<feComposite in2="hardAlpha" operator="out"/>
<feColorMatrix type="matrix" values="0 0 0 0 0 0 0 0 0 0 0 0 0 0 0 0 0 0 0.04 0"/>
<feBlend mode="normal" in2="effect1_dropShadow_244_17246" result="effect2_dropShadow_244_17246"/>
<feBlend mode="normal" in="SourceGraphic" in2="effect2_dropShadow_244_17246" result="shape"/>
</filter>
</defs>
</svg>
