<svg width="130" height="137" viewBox="0 0 130 137" fill="none" xmlns="http://www.w3.org/2000/svg">
<g filter="url(#filter0_dd_244_17243)">
<path d="M120.689 15.5425L8.76703 15.6033L8.82777 127.525L120.75 127.465L120.689 15.5425Z" fill="white"/>
<path d="M120.636 15.5119L120.736 127.434L120.831 127.434L120.731 15.5118L120.636 15.5119Z" fill="#D1E9F6"/>
<path d="M120.852 127.481L120.661 127.483L120.658 127.437L120.592 15.4688L120.784 15.4674L120.787 15.5131L120.852 127.481Z" fill="#D1E9F6"/>
<path d="M115.768 15.516L115.868 127.438L115.964 127.438L115.864 15.5159L115.768 15.516Z" fill="#D1E9F6"/>
<path d="M115.988 127.483L115.797 127.484L115.794 127.439L115.729 15.4705L115.92 15.4691L115.923 15.5148L115.988 127.483Z" fill="#D1E9F6"/>
<path d="M110.901 15.5165L111.001 127.439L111.096 127.439L110.996 15.5164L110.901 15.5165Z" fill="#D1E9F6"/>
<path d="M111.121 127.485L110.929 127.487L110.926 127.441L110.861 15.4727L111.053 15.4713L111.056 15.517L111.121 127.485Z" fill="#D1E9F6"/>
<path d="M106.033 15.5208L106.133 127.443L106.229 127.443L106.129 15.5207L106.033 15.5208Z" fill="#D1E9F6"/>
<path d="M106.254 127.491L106.062 127.492L106.059 127.447L105.994 15.4785L106.185 15.4771L106.188 15.5229L106.254 127.491Z" fill="#D1E9F6"/>
<path d="M101.169 15.5252L101.269 127.447L101.365 127.447L101.265 15.5251L101.169 15.5252Z" fill="#D1E9F6"/>
<path d="M101.39 127.493L101.198 127.491L101.199 127.445L101.13 15.4766L101.321 15.4752L101.32 15.5212L101.39 127.493Z" fill="#D1E9F6"/>
<path d="M96.3018 15.5259L96.4016 127.448L96.4971 127.448L96.3973 15.5258L96.3018 15.5259Z" fill="#D1E9F6"/>
<path d="M96.5222 127.495L96.3308 127.497L96.3312 127.447L96.2622 15.4788L96.4536 15.4774L96.4531 15.5272L96.5222 127.495Z" fill="#D1E9F6"/>
<path d="M91.4342 15.5302L91.5341 127.452L91.6296 127.452L91.5298 15.5301L91.4342 15.5302Z" fill="#D1E9F6"/>
<path d="M91.6546 127.497L91.4632 127.499L91.4637 127.449L91.3984 15.4807L91.586 15.4796L91.5894 15.5291L91.6546 127.497Z" fill="#D1E9F6"/>
<path d="M86.5705 15.5342L86.6703 127.456L86.7658 127.456L86.666 15.5341L86.5705 15.5342Z" fill="#D1E9F6"/>
<path d="M86.7909 127.499L86.5995 127.501L86.6002 127.455L86.5309 15.4829L86.7226 15.4853L86.7219 15.5314L86.7909 127.499Z" fill="#D1E9F6"/>
<path d="M81.7066 15.5347L81.8065 127.457L81.902 127.457L81.8022 15.5346L81.7066 15.5347Z" fill="#D1E9F6"/>
<path d="M81.9236 127.505L81.7319 127.503L81.7327 127.457L81.6636 15.4888L81.855 15.4874L81.8543 15.5334L81.9236 127.505Z" fill="#D1E9F6"/>
<path d="M76.8391 15.539L76.9389 127.461L77.0344 127.461L76.9346 15.5389L76.8391 15.539Z" fill="#D1E9F6"/>
<path d="M77.056 127.507L76.8646 127.509L76.8615 127.463L76.7963 15.4946L76.9877 15.4933L76.9908 15.539L77.056 127.507Z" fill="#D1E9F6"/>
<path d="M71.9714 15.5432L72.0712 127.465L72.1668 127.465L72.0669 15.5432L71.9714 15.5432Z" fill="#D1E9F6"/>
<path d="M72.1922 127.509L72.0008 127.511L71.9977 127.465L71.9325 15.4966L72.1239 15.4952L72.127 15.541L72.1922 127.509Z" fill="#D1E9F6"/>
<path d="M67.1039 15.5437L67.2037 127.466L67.2993 127.466L67.1995 15.5437L67.1039 15.5437Z" fill="#D1E9F6"/>
<path d="M67.3247 127.511L67.1333 127.513L67.1302 127.467L67.065 15.4988L67.2564 15.4974L67.2595 15.5432L67.3247 127.511Z" fill="#D1E9F6"/>
<path d="M62.2402 15.5481L62.34 127.47L62.4355 127.47L62.3357 15.548L62.2402 15.5481Z" fill="#D1E9F6"/>
<path d="M62.4574 127.517L62.266 127.519L62.2629 127.473L62.1977 15.5047L62.3891 15.5033L62.3922 15.549L62.4574 127.517Z" fill="#D1E9F6"/>
<path d="M57.3725 15.5526L57.4724 127.475L57.5679 127.475L57.4681 15.5526L57.3725 15.5526Z" fill="#D1E9F6"/>
<path d="M57.5936 127.519L57.4022 127.521L57.3991 127.475L57.3339 15.5066L57.5253 15.5052L57.5284 15.551L57.5936 127.519Z" fill="#D1E9F6"/>
<path d="M52.5049 15.5529L52.6047 127.475L52.7003 127.475L52.6005 15.5528L52.5049 15.5529Z" fill="#D1E9F6"/>
<path d="M52.7261 127.521L52.5347 127.522L52.5316 127.477L52.4664 15.5086L52.6578 15.5072L52.6608 15.5529L52.7261 127.521ZM52.6314 127.424L52.591 64.0126L52.6276 127.424L52.6314 127.424Z" fill="#D1E9F6"/>
<path d="M47.6373 15.5572L47.7371 127.479L47.8327 127.479L47.7328 15.5571L47.6373 15.5572Z" fill="#D1E9F6"/>
<path d="M47.8585 127.523L47.6671 127.525L47.664 127.479L47.5988 15.5108L47.7902 15.5094L47.7933 15.5551L47.8585 127.523Z" fill="#D1E9F6"/>
<path d="M42.7774 15.5612L42.8772 127.483L42.9727 127.483L42.8729 15.5611L42.7774 15.5612Z" fill="#D1E9F6"/>
<path d="M42.995 127.529L42.8034 127.527L42.8041 127.481L42.7348 15.5088L42.9264 15.5112L42.9257 15.5572L42.995 127.529Z" fill="#D1E9F6"/>
<path d="M37.9098 15.5617L38.0096 127.484L38.1051 127.484L38.0053 15.5616L37.9098 15.5617Z" fill="#D1E9F6"/>
<path d="M38.1274 127.531L37.936 127.532L37.9365 127.483L37.8675 15.5147L38.0589 15.5133L38.0581 15.5593L38.1274 127.531Z" fill="#D1E9F6"/>
<path d="M33.0422 15.5662L33.142 127.488L33.2375 127.488L33.1377 15.5661L33.0422 15.5662Z" fill="#D1E9F6"/>
<path d="M33.2599 127.533L33.0723 127.534L33.0689 127.485L33.0037 15.5166L33.1951 15.5152L33.1946 15.565L33.2599 127.533Z" fill="#D1E9F6"/>
<path d="M28.1746 15.5668L28.2744 127.489L28.3699 127.489L28.2701 15.5667L28.1746 15.5668Z" fill="#D1E9F6"/>
<path d="M28.3961 127.535L28.2047 127.537L28.2055 127.491L28.1362 15.5188L28.3278 15.5212L28.3271 15.5672L28.3961 127.535Z" fill="#D1E9F6"/>
<path d="M23.3108 15.5711L23.4106 127.493L23.5062 127.493L23.4064 15.571L23.3108 15.5711Z" fill="#D1E9F6"/>
<path d="M23.5289 127.541L23.3375 127.543L23.3344 127.497L23.2691 15.5286L23.4605 15.5272L23.4636 15.5729L23.5289 127.541Z" fill="#D1E9F6"/>
<path d="M18.4432 15.5753L18.543 127.498L18.6386 127.497L18.5387 15.5753L18.4432 15.5753Z" fill="#D1E9F6"/>
<path d="M18.6651 127.543L18.4737 127.544L18.4706 127.499L18.4051 15.5266L18.5965 15.5252L18.5996 15.571L18.6648 127.539L18.6651 127.543Z" fill="#D1E9F6"/>
<path d="M13.5755 15.5756L13.6754 127.498L13.7709 127.498L13.6711 15.5755L13.5755 15.5756Z" fill="#D1E9F6"/>
<path d="M13.7975 127.545L13.6061 127.546L13.603 127.501L13.5375 15.5286L13.7289 15.5272L13.732 15.5729L13.7972 127.541L13.7975 127.545ZM13.7029 127.448L13.6319 15.6218L13.6991 127.448L13.7029 127.448Z" fill="#D1E9F6"/>
<path d="M8.70799 15.5801L8.8078 127.502L8.90333 127.502L8.80352 15.58L8.70799 15.5801Z" fill="#D1E9F6"/>
<path d="M8.92993 127.547L8.73853 127.549L8.73546 127.503L8.66997 15.5308L8.86137 15.5294L8.86445 15.5751L8.92968 127.543L8.92993 127.547ZM8.83532 127.45L8.7684 15.6276L8.83558 127.454L8.83532 127.45Z" fill="#D1E9F6"/>
<path d="M120.756 127.48L8.8343 127.55L8.83551 127.454L120.757 127.384L120.756 127.48Z" fill="#D1E9F6"/>
<path d="M120.805 127.526L120.76 127.53L8.7914 127.595L8.79001 127.403L8.83576 127.4L120.804 127.335L120.805 127.526Z" fill="#D1E9F6"/>
<path d="M120.754 122.612L8.83222 122.682L8.83344 122.586L120.756 122.52L120.754 122.612Z" fill="#D1E9F6"/>
<path d="M120.803 122.663L120.758 122.666L8.78957 122.731L8.78816 122.54L8.83391 122.537L120.802 122.471L120.803 122.663Z" fill="#D1E9F6"/>
<path d="M120.752 117.749L8.83007 117.815L8.83155 117.723L120.75 117.653L120.752 117.749Z" fill="#D1E9F6"/>
<path d="M120.798 117.795L120.752 117.798L8.78358 117.864L8.7822 117.672L8.82795 117.669L120.796 117.604L120.798 117.795Z" fill="#D1E9F6"/>
<path d="M120.746 112.881L8.82825 112.951L8.82563 112.855L120.748 112.785L120.746 112.881Z" fill="#D1E9F6"/>
<path d="M120.795 112.928L120.75 112.931L8.78151 112.996L8.7801 112.805L8.82585 112.802L120.794 112.736L120.795 112.928Z" fill="#D1E9F6"/>
<path d="M120.745 108.018L8.82233 108.084L8.82355 107.988L120.746 107.922L120.745 108.018Z" fill="#D1E9F6"/>
<path d="M120.794 108.064L120.748 108.067L8.77962 108.132L8.77823 107.941L8.82398 107.938L120.792 107.873L120.794 108.064Z" fill="#D1E9F6"/>
<path d="M120.742 103.15L8.82019 103.216L8.82164 103.124L120.744 103.054L120.742 103.15Z" fill="#D1E9F6"/>
<path d="M120.791 103.197L120.746 103.2L8.77748 103.265L8.77607 103.073L8.82182 103.07L120.79 103.005L120.791 103.197Z" fill="#D1E9F6"/>
<path d="M120.74 98.2826L8.81831 98.3524L8.81952 98.2566L120.741 98.1868L120.74 98.2826Z" fill="#D1E9F6"/>
<path d="M120.785 98.3293L120.74 98.3324L8.77156 98.3977L8.77018 98.2063L8.81593 98.2032L120.784 98.138L120.785 98.3293Z" fill="#D1E9F6"/>
<path d="M120.738 93.4189L8.81617 93.4848L8.81357 93.3893L120.736 93.3233L120.738 93.4189Z" fill="#D1E9F6"/>
<path d="M120.784 93.4656L120.738 93.4687L8.76967 93.5339L8.76828 93.3425L8.81403 93.3394L120.782 93.2742L120.784 93.4656Z" fill="#D1E9F6"/>
<path d="M120.732 88.5515L8.81024 88.6175L8.81171 88.5255L120.734 88.4557L120.732 88.5515Z" fill="#D1E9F6"/>
<path d="M120.781 88.598L120.736 88.6011L8.76753 88.6663L8.76613 88.4749L8.81187 88.4719L120.78 88.4066L120.781 88.598Z" fill="#D1E9F6"/>
<path d="M120.73 83.684L8.80836 83.7538L8.80957 83.6579L120.732 83.5882L120.73 83.684Z" fill="#D1E9F6"/>
<path d="M120.78 83.7343L120.734 83.7373L8.76564 83.8026L8.76426 83.6112L8.81001 83.6081L120.778 83.5429L120.78 83.7343Z" fill="#D1E9F6"/>
<path d="M120.728 78.8202L8.80622 78.8862L8.80741 78.7904L120.73 78.7244L120.728 78.8202Z" fill="#D1E9F6"/>
<path d="M120.777 78.8667L120.732 78.8698L8.76356 78.935L8.76216 78.7436L8.80791 78.7405L120.776 78.6753L120.777 78.8667Z" fill="#D1E9F6"/>
<path d="M120.726 73.9527L8.80433 74.0224L8.80173 73.9269L120.724 73.8571L120.726 73.9527Z" fill="#D1E9F6"/>
<path d="M120.772 73.9994L120.726 74.0025L8.75758 74.0677L8.7562 73.8763L8.80195 73.8732L120.77 73.808L120.772 73.9994Z" fill="#D1E9F6"/>
<path d="M120.72 69.0854L8.79841 69.1551L8.7996 69.0593L120.722 68.9895L120.72 69.0854Z" fill="#D1E9F6"/>
<path d="M120.77 69.1356L120.724 69.1387L8.75575 69.2039L8.75435 69.0125L8.80009 69.0095L120.768 68.9442L120.77 69.1356Z" fill="#D1E9F6"/>
<path d="M120.718 64.2216L8.79627 64.2876L8.79749 64.1917L120.72 64.1258L120.718 64.2216Z" fill="#D1E9F6"/>
<path d="M120.768 64.2681L120.722 64.2711L8.75362 64.3364L8.75223 64.145L8.79798 64.1419L120.766 64.0767L120.768 64.2681Z" fill="#D1E9F6"/>
<path d="M120.716 59.354L8.79444 59.4238L8.79563 59.328L120.718 59.2582L120.716 59.354Z" fill="#D1E9F6"/>
<path d="M120.765 59.4005L120.72 59.4036L8.75148 59.4688L8.7501 59.2774L8.79584 59.2743L120.764 59.2091L120.765 59.4005Z" fill="#D1E9F6"/>
<path d="M120.714 54.4864L8.7923 54.5561L8.7897 54.4606L120.712 54.3908L120.714 54.4864Z" fill="#D1E9F6"/>
<path d="M120.76 54.537L120.714 54.5401L8.7458 54.6053L8.74442 54.4139L8.79017 54.4108L120.758 54.3456L120.76 54.537Z" fill="#D1E9F6"/>
<path d="M120.708 49.6229L8.78632 49.6888L8.78754 49.593L120.71 49.527L120.708 49.6229Z" fill="#D1E9F6"/>
<path d="M120.758 49.6694L120.712 49.6725L8.74367 49.7377L8.74228 49.5463L8.78803 49.5433L120.756 49.478L120.758 49.6694Z" fill="#D1E9F6"/>
<path d="M120.706 44.7555L8.78443 44.8253L8.78565 44.7295L120.708 44.6597L120.706 44.7555Z" fill="#D1E9F6"/>
<path d="M120.755 44.8019L120.71 44.805L8.74153 44.8702L8.74012 44.6788L8.78587 44.6757L120.754 44.6105L120.755 44.8019Z" fill="#D1E9F6"/>
<path d="M120.704 39.8878L8.7823 39.9576L8.78351 39.8618L120.706 39.7958L120.704 39.8878Z" fill="#D1E9F6"/>
<path d="M120.754 39.9381L120.708 39.9412L8.73964 40.0064L8.73826 39.815L8.784 39.8119L120.752 39.7467L120.754 39.9381Z" fill="#D1E9F6"/>
<path d="M120.702 35.0241L8.78022 35.0901L8.77762 34.9945L120.7 34.9285L120.702 35.0241Z" fill="#D1E9F6"/>
<path d="M120.748 35.0708L120.702 35.0739L8.73372 35.1391L8.73231 34.9477L8.77806 34.9446L120.746 34.8794L120.748 35.0708Z" fill="#D1E9F6"/>
<path d="M120.696 30.1568L8.77454 30.2265L8.77576 30.1307L120.698 30.0609L120.696 30.1568Z" fill="#D1E9F6"/>
<path d="M120.745 30.2033L120.7 30.2063L8.73158 30.2716L8.7302 30.0802L8.77595 30.0771L120.744 30.0119L120.745 30.2033Z" fill="#D1E9F6"/>
<path d="M120.694 25.2892L8.77241 25.359L8.7736 25.2632L120.696 25.1972L120.694 25.2892Z" fill="#D1E9F6"/>
<path d="M120.744 25.3395L120.698 25.3426L8.72975 25.4078L8.72834 25.2164L8.77409 25.2133L120.742 25.1481L120.744 25.3395Z" fill="#D1E9F6"/>
<path d="M120.692 20.4257L8.77026 20.4916L8.77173 20.3996L120.694 20.3299L120.692 20.4257Z" fill="#D1E9F6"/>
<path d="M120.742 20.4719L120.696 20.475L8.72761 20.5402L8.72621 20.3488L8.77198 20.3458L120.744 20.2803L120.742 20.4719Z" fill="#D1E9F6"/>
<path d="M120.69 15.558L8.76838 15.6278L8.76578 15.5322L120.688 15.4624L120.69 15.558Z" fill="#D1E9F6"/>
<path d="M120.736 15.6047L120.69 15.6078L8.71785 15.6733L8.71644 15.4819L8.76219 15.4788L120.73 15.4136L120.732 15.605L120.736 15.6047Z" fill="#D1E9F6"/>
<path opacity="0.8" d="M85.4757 13.0071C85.4382 11.5964 85.1833 10.2003 85.1306 8.7907C85.1117 8.2826 85.051 7.60881 85.1559 7.06174L48.4563 7.99644C48.8324 9.03198 48.6574 10.7557 48.6984 11.5917C48.8223 14.2297 48.9425 16.8681 48.963 19.5054L85.5326 18.5756C85.2084 16.7745 85.5282 14.8687 85.476 13.0109L85.4757 13.0071Z" fill="#D1E9F6"/>
</g>
<defs>
<filter id="filter0_dd_244_17243" x="-5.49061" y="-3.30945" width="143.676" height="148.529" filterUnits="userSpaceOnUse" color-interpolation-filters="sRGB">
<feFlood flood-opacity="0" result="BackgroundImageFix"/>
<feColorMatrix in="SourceAlpha" type="matrix" values="0 0 0 0 0 0 0 0 0 0 0 0 0 0 0 0 0 0 127 0" result="hardAlpha"/>
<feMorphology radius="1.1125" operator="dilate" in="SourceAlpha" result="effect1_dropShadow_244_17243"/>
<feOffset dx="0.278124" dy="0.278124"/>
<feGaussianBlur stdDeviation="2.78124"/>
<feComposite in2="hardAlpha" operator="out"/>
<feColorMatrix type="matrix" values="0 0 0 0 0 0 0 0 0 0 0 0 0 0 0 0 0 0 0.04 0"/>
<feBlend mode="normal" in2="BackgroundImageFix" result="effect1_dropShadow_244_17243"/>
<feColorMatrix in="SourceAlpha" type="matrix" values="0 0 0 0 0 0 0 0 0 0 0 0 0 0 0 0 0 0 127 0" result="hardAlpha"/>
<feOffset dx="2.78124" dy="2.78124"/>
<feGaussianBlur stdDeviation="2.78124"/>
<feComposite in2="hardAlpha" operator="out"/>
<feColorMatrix type="matrix" values="0 0 0 0 0 0 0 0 0 0 0 0 0 0 0 0 0 0 0.04 0"/>
<feBlend mode="normal" in2="effect1_dropShadow_244_17243" result="effect2_dropShadow_244_17243"/>
<feBlend mode="normal" in="SourceGraphic" in2="effect2_dropShadow_244_17243" result="shape"/>
</filter>
</defs>
</svg>
